<svg width="24" height="24" viewBox="0 0 24 24" fill="none"
    xmlns="http://www.w3.org/2000/svg">
    <g id="icon_eye_2">
        <g id="Hide">
            <path id="Stroke 1" d="M9.76045 14.3677C9.18545 13.7937 8.83545 13.0137 8.83545 12.1387C8.83545 10.3857 10.2474 8.97266 11.9994 8.97266C12.8664 8.97266 13.6644 9.32366 14.2294 9.89766" stroke="currentColor" stroke-width="1.5" stroke-linecap="round" stroke-linejoin="round"/>
            <path id="Stroke 3" d="M15.1049 12.6992C14.8729 13.9892 13.8569 15.0072 12.5679 15.2412" stroke="currentColor" stroke-width="1.5" stroke-linecap="round" stroke-linejoin="round"/>
            <path id="Stroke 5" d="M6.65451 17.473C5.06751 16.227 3.72351 14.407 2.74951 12.138C3.73351 9.85896 5.08651 8.02896 6.68351 6.77296C8.27051 5.51696 10.1015 4.83496 11.9995 4.83496C13.9085 4.83496 15.7385 5.52696 17.3355 6.79196" stroke="currentColor" stroke-width="1.5" stroke-linecap="round" stroke-linejoin="round"/>
            <path id="Stroke 7" d="M19.4473 8.99121C20.1353 9.90521 20.7403 10.9602 21.2493 12.1372C19.2823 16.6942 15.8063 19.4392 11.9993 19.4392C11.1363 19.4392 10.2853 19.2992 9.46729 19.0262" stroke="currentColor" stroke-width="1.5" stroke-linecap="round" stroke-linejoin="round"/>
            <path id="Stroke 9" d="M19.8868 4.25L4.11279 20.024" stroke="currentColor" stroke-width="1.5" stroke-linecap="round" stroke-linejoin="round"/>
        </g>
    </g>
</svg>
