<svg width="18" height="18" viewBox="0 0 18 18" fill="none" xmlns="http://www.w3.org/2000/svg">
<g id="icon_filter" clip-path="url(#clip0_181_91680)">
<path id="icon" d="M4.74158 13.5001H2.57129V12.4715H4.667C4.75553 12.0355 4.99206 11.6436 5.3365 11.362C5.68095 11.0805 6.11214 10.9267 6.557 10.9267C7.00187 10.9267 7.43306 11.0805 7.7775 11.362C8.12195 11.6436 8.35848 12.0355 8.447 12.4715H15.4284V13.5001H8.37243C8.24009 13.8759 7.99438 14.2013 7.66921 14.4316C7.34404 14.6618 6.95543 14.7854 6.557 14.7854C6.15858 14.7854 5.76997 14.6618 5.4448 14.4316C5.11963 14.2013 4.87392 13.8759 4.74158 13.5001ZM5.747 12.4715C5.68688 12.5911 5.65604 12.7233 5.657 12.8572C5.657 13.0959 5.75182 13.3248 5.92061 13.4936C6.08939 13.6624 6.31831 13.7572 6.557 13.7572C6.7957 13.7572 7.02462 13.6624 7.1934 13.4936C7.36218 13.3248 7.457 13.0959 7.457 12.8572C7.45807 12.7233 7.42722 12.5911 7.367 12.4715C7.29477 12.3177 7.18024 12.1876 7.0368 12.0965C6.89336 12.0054 6.72694 11.957 6.557 11.957C6.38707 11.957 6.22065 12.0054 6.07721 12.0965C5.93377 12.1876 5.81923 12.3177 5.747 12.4715ZM9.62729 9.64291H2.57129V8.61434H9.55272C9.64125 8.17837 9.87777 7.78641 10.2222 7.50488C10.5667 7.22334 10.9979 7.06955 11.4427 7.06955C11.8876 7.06955 12.3188 7.22334 12.6632 7.50488C13.0077 7.78641 13.2442 8.17837 13.3327 8.61434H15.4284V9.64291H13.2581C13.1258 10.0187 12.8801 10.3442 12.5549 10.5744C12.2298 10.8046 11.8411 10.9283 11.4427 10.9283C11.0443 10.9283 10.6557 10.8046 10.3305 10.5744C10.0053 10.3442 9.75963 10.0187 9.62729 9.64291ZM10.6327 8.61434C10.5726 8.73397 10.5417 8.86617 10.5427 9.00005C10.5427 9.23875 10.6375 9.46766 10.8063 9.63645C10.9751 9.80523 11.204 9.90005 11.4427 9.90005C11.6814 9.90005 11.9103 9.80523 12.0791 9.63645C12.2479 9.46766 12.3427 9.23875 12.3427 9.00005C12.3438 8.86615 12.3129 8.73393 12.2527 8.61434C12.1805 8.46052 12.066 8.33044 11.9225 8.23933C11.7791 8.14822 11.6127 8.09983 11.4427 8.09983C11.2728 8.09983 11.1064 8.14822 10.9629 8.23933C10.8195 8.33044 10.7049 8.46052 10.6327 8.61434ZM4.74158 5.78576H2.57129V4.75719H4.667C4.75553 4.32122 4.99206 3.92927 5.3365 3.64773C5.68095 3.3662 6.11214 3.2124 6.557 3.2124C7.00187 3.2124 7.43306 3.3662 7.7775 3.64773C8.12195 3.92927 8.35848 4.32122 8.447 4.75719H15.4284V5.78576H8.37243C8.24009 6.16157 7.99438 6.48704 7.66921 6.71727C7.34404 6.9475 6.95543 7.07115 6.557 7.07115C6.15858 7.07115 5.76997 6.9475 5.4448 6.71727C5.11963 6.48704 4.87392 6.16157 4.74158 5.78576ZM5.747 4.75719C5.68686 4.87681 5.65601 5.00902 5.657 5.14291C5.657 5.3816 5.75182 5.61052 5.92061 5.7793C6.08939 5.94809 6.31831 6.04291 6.557 6.04291C6.7957 6.04291 7.02462 5.94809 7.1934 5.7793C7.36218 5.61052 7.457 5.3816 7.457 5.14291C7.45812 5.00901 7.42727 4.87677 7.367 4.75719C7.29477 4.60337 7.18024 4.4733 7.0368 4.38219C6.89336 4.29108 6.72694 4.24269 6.557 4.24269C6.38707 4.24269 6.22065 4.29108 6.07721 4.38219C5.93377 4.4733 5.81923 4.60337 5.747 4.75719Z" fill="black"/>
</g>
<defs>
<clipPath id="clip0_181_91680">
<rect width="18" height="18" fill="white"/>
</clipPath>
</defs>
</svg>
