<svg xmlns="http://www.w3.org/2000/svg" width="20" height="20" viewBox="0 0 20 20">

    <g transform="translate(-317 -56)">
        <rect opacity="0" width="20" height="20" transform="translate(317 56)"/>
        <path fill="currentColor" class="b" d="M8.982,2.713h5.207c.529.052.4.971.4,1.569V7.127c0,.618.118,1.376-.3,1.552a5.2,5.2,0,0,1-1.345.034H10.188c-.638,0-1.51.15-1.608-.4V3.11A.6.6,0,0,1,8.982,2.713ZM9.7,3.885V7.592h3.757V3.834H9.716C9.7,3.837,9.7,3.861,9.7,3.885Zm6.273-1.172h5.207a.577.577,0,0,1,.4.466V8.247a.548.548,0,0,1-.367.448,6.026,6.026,0,0,1-1.31.017H17.229A5.772,5.772,0,0,1,15.9,8.7c-.462-.143-.332-1.033-.332-1.655V4.385C15.569,3.667,15.409,2.813,15.971,2.713Zm.716,1.172V7.592h3.757V3.834H16.705C16.685,3.837,16.686,3.861,16.688,3.885ZM11.411,4.972a.759.759,0,0,1,.944.724.771.771,0,1,1-.944-.724Zm6.989,0a.765.765,0,1,1,0,1.5A.773.773,0,0,1,18.4,4.972ZM14.154,15.713H9A.578.578,0,0,1,8.58,15.3V10.11a.569.569,0,0,1,.349-.379,5.983,5.983,0,0,1,1.31-.017h2.673a5.631,5.631,0,0,1,1.328.017c.484.141.349,1.017.349,1.638V14.11C14.591,14.78,14.737,15.653,14.154,15.713ZM9.7,10.885v3.707h3.757V10.834H9.716C9.7,10.837,9.7,10.861,9.7,10.885Zm11.882-.707v1.448c-.041.489-.006,1.052-.017,1.569H17.841v-.845c-.349-.04-.775-.006-1.153-.017-.041,1.092-.006,2.259-.017,3.379h-.681c-.586-.116-.419-.983-.419-1.672V11.368a5.83,5.83,0,0,1,.017-1.328c.119-.386.636-.328,1.153-.328h2.534v2.293h1.171c.012-.759-.023-1.563.017-2.293C21.025,9.68,21.547,9.688,21.58,10.179ZM11.5,11.954a.769.769,0,0,1,.8,1.052.781.781,0,0,1-1.468-.517A.711.711,0,0,1,11.5,11.954Zm7.6,3.759H17.841c.012-.443-.023-.931.017-1.345H19.1Zm2.481-1.345v.879a.573.573,0,0,1-.419.466H20.27c.012-.443-.023-.931.017-1.345Z" transform="translate(311.92 56.787)"/>
    </g>
</svg>
