<svg width="14" height="14" viewBox="0 0 14 14" fill="none" xmlns="http://www.w3.org/2000/svg">
<g id="icon_copy" clip-path="url(#clip0_208_23109)">
<path id="Vector" d="M1.99245 13.4163H8.8682C9.24763 13.4163 9.61151 13.2656 9.87981 12.9973C10.1481 12.729 10.2988 12.3651 10.2988 11.9857V5.1318C10.2988 4.34167 9.65833 3.70117 8.8682 3.70117H1.99245C1.20233 3.70117 0.561828 4.34167 0.561828 5.1318V12.0075C0.583703 12.7758 1.2242 13.4163 1.99245 13.4163ZM8.8682 4.9813C8.88806 4.98081 8.9078 4.98438 8.92624 4.99178C8.94467 4.99919 8.96139 5.01027 8.9754 5.02435C8.9894 5.03844 9.00038 5.05523 9.00768 5.0737C9.01498 5.09218 9.01843 5.11194 9.01783 5.1318V12.0075C9.01783 12.0924 8.95395 12.1563 8.86908 12.1563H1.99245C1.90758 12.1563 1.8437 12.0924 1.8437 12.0075V5.1318C1.84323 5.11209 1.84674 5.09249 1.85404 5.07418C1.86134 5.05587 1.87226 5.03923 1.88616 5.02525C1.90005 5.01127 1.91663 5.00025 1.9349 4.99285C1.95317 4.98544 1.97275 4.98181 1.99245 4.98217H8.8682V4.9813Z" fill="#363636"/>
<path id="Vector_2" d="M11.3664 10.2986H11.9859C12.3653 10.2986 12.7292 10.1479 12.9975 9.8796C13.2658 9.61131 13.4165 9.24742 13.4165 8.868V2.01412C13.4165 1.224 12.776 0.583496 11.9859 0.583496H5.11013C4.32 0.583496 3.6795 1.224 3.6795 2.01412V2.69662C3.67784 2.78123 3.69327 2.8653 3.72485 2.94381C3.75644 3.02232 3.80355 3.09365 3.86334 3.15353C3.92314 3.21341 3.99441 3.26061 4.07287 3.29231C4.15134 3.324 4.23539 3.33954 4.32 3.338C4.40451 3.33942 4.48843 3.32382 4.56678 3.29213C4.64513 3.26045 4.71631 3.21332 4.77607 3.15356C4.83583 3.0938 4.88296 3.02263 4.91464 2.94428C4.94633 2.86592 4.96192 2.782 4.9605 2.6975V2.01412C4.96002 1.99434 4.96357 1.97467 4.97092 1.9563C4.97826 1.93793 4.98927 1.92124 5.00326 1.90725C5.01725 1.89326 5.03394 1.88226 5.05231 1.87491C5.07068 1.86756 5.09035 1.86402 5.11013 1.8645H11.9859C12.0056 1.86402 12.0252 1.86754 12.0435 1.87483C12.0618 1.88213 12.0784 1.89305 12.0924 1.90695C12.1064 1.92085 12.1174 1.93743 12.1248 1.9557C12.1322 1.97396 12.1359 1.99354 12.1355 2.01325V8.88987C12.1355 8.97475 12.0716 9.03862 11.9868 9.03862H11.3673C11.2827 9.0372 11.1987 9.05282 11.1203 9.08456C11.0419 9.1163 10.9706 9.1635 10.9109 9.22336C10.8511 9.28321 10.804 9.35449 10.7724 9.43295C10.7407 9.5114 10.7252 9.59542 10.7268 9.68C10.7268 10.0422 11.0251 10.2986 11.3673 10.2986H11.3664Z" fill="#363636"/>
</g>
<defs>
<clipPath id="clip0_208_23109">
<rect width="14" height="14" fill="white" transform="matrix(-1 0 0 1 14 0)"/>
</clipPath>
</defs>
</svg>
