<svg width="24" height="24" viewBox="0 0 24 24" fill="none" xmlns="http://www.w3.org/2000/svg">
<g id="icon_more">
<g id="Category">
<path id="Category_2" fill-rule="evenodd" clip-rule="evenodd" d="M5.54531 3.44189H8.3437C9.51108 3.44189 10.4466 4.39401 10.4466 5.56221V8.38461C10.4466 9.56027 9.51108 10.5041 8.3437 10.5041H5.54531C4.38622 10.5041 3.44238 9.56027 3.44238 8.38461V5.56221C3.44238 4.39401 4.38622 3.44189 5.54531 3.44189ZM5.54531 12.938H8.3437C9.51108 12.938 10.4466 13.8827 10.4466 15.0583V17.8807C10.4466 19.0481 9.51108 20.0002 8.3437 20.0002H5.54531C4.38622 20.0002 3.44238 19.0481 3.44238 17.8807V15.0583C3.44238 13.8827 4.38622 12.938 5.54531 12.938ZM17.8976 3.44189H15.0992C13.9318 3.44189 12.9963 4.39401 12.9963 5.56221V8.38461C12.9963 9.56027 13.9318 10.5041 15.0992 10.5041H17.8976C19.0567 10.5041 20.0005 9.56027 20.0005 8.38461V5.56221C20.0005 4.39401 19.0567 3.44189 17.8976 3.44189ZM15.0992 12.938H17.8976C19.0567 12.938 20.0005 13.8827 20.0005 15.0583V17.8807C20.0005 19.0481 19.0567 20.0002 17.8976 20.0002H15.0992C13.9318 20.0002 12.9963 19.0481 12.9963 17.8807V15.0583C12.9963 13.8827 13.9318 12.938 15.0992 12.938Z" fill="black"/>
</g>
</g>
</svg>
