<svg width="24" height="24" viewBox="0 0 24 24" fill="none" xmlns="http://www.w3.org/2000/svg">
<g id="icon_show">
<g id="Upload">
<path id="Upload_2" fill-rule="evenodd" clip-rule="evenodd" d="M8.73125 5.7735C8.52494 6.05216 8.54863 6.44964 8.80929 6.70189C9.08676 6.97936 9.53997 6.97936 9.81744 6.70189L11.288 5.22203V9.05116H12.7124V5.22203L14.183 6.70189L14.2628 6.77068C14.5414 6.97707 14.9389 6.95414 15.1912 6.70189C15.3299 6.56315 15.4039 6.37817 15.4039 6.19319C15.4039 6.01746 15.3299 5.83247 15.1912 5.69374L12.4997 2.993L12.4158 2.9176C12.2962 2.82763 12.1482 2.78027 12.0002 2.78027C11.806 2.78027 11.6303 2.85427 11.4915 2.993L8.80004 5.69374L8.73125 5.7735ZM6.66442 9.05596C4.48787 9.15877 2.75098 10.9897 2.75098 13.2202V17.8125L2.75545 18.0091C2.85651 20.2241 4.65655 22.0001 6.86682 22.0001H17.1426L17.3357 21.9956C19.5123 21.8928 21.2492 20.0616 21.2492 17.8219V13.239L21.2447 13.0417C21.1431 10.8186 19.3346 9.05141 17.1333 9.05141H12.7122V14.6977L12.7057 14.7969C12.6578 15.1534 12.3562 15.4223 12.0001 15.4223C11.6024 15.4223 11.2879 15.1023 11.2879 14.6977V9.05141H6.85757L6.66442 9.05596Z" fill="#111111"/>
</g>
</g>
</svg>
