<svg xmlns="http://www.w3.org/2000/svg" width="24" height="24" viewBox="0 0 24 24">
  <g id="icon_share" transform="translate(-298 -59)">
    <rect id="矩形_56563" data-name="矩形 56563" width="24" height="24" transform="translate(298 59)" fill="none"/>
    <g id="组_126897" data-name="组 126897" transform="translate(744.289 -203.318)">
      <g id="组_126899" data-name="组 126899" transform="translate(-443.811 266.524)">
        <path id="路径_119546" data-name="路径 119546" d="M-425.713,272.547c-2.166,0-3.31,2.071-4.23,3.735-.589,1.066-1.2,2.168-1.8,2.229a3.447,3.447,0,0,1-1.613-.991,3.949,3.949,0,0,0-2.979-1.324c-1.754.076-3.343,1.318-4.714,3.693a.731.731,0,0,0,.266,1,.731.731,0,0,0,1-.266c1.107-1.911,2.293-2.912,3.512-2.961a2.575,2.575,0,0,1,1.941.955,4.646,4.646,0,0,0,2.419,1.356.831.831,0,0,0,.119.011c1.478,0,2.318-1.518,3.129-2.986.648-1.173,1.313-2.376,2.22-2.811v8.451h-15.905V268.061H-431.2a.732.732,0,0,0,.73-.732.731.731,0,0,0-.73-.73H-443.08a.73.73,0,0,0-.731.731v16.03a.731.731,0,0,0,.731.731h17.367a.731.731,0,0,0,.731-.731V273.277A.731.731,0,0,0-425.713,272.547Z" transform="translate(443.811 -266.599)"/>
        <path id="路径_119547" data-name="路径 119547" d="M-441.014,272.623a2.4,2.4,0,0,0,2.4,2.4,2.4,2.4,0,0,0,2.4-2.4,2.4,2.4,0,0,0-2.4-2.4A2.4,2.4,0,0,0-441.014,272.623Zm3.343,0a.94.94,0,0,1-.9.976.94.94,0,0,1-.976-.9.941.941,0,0,1,.9-.977h.038a.939.939,0,0,1,.936.9Z" transform="translate(443.686 -266.761)"/>
      </g>
      <path id="联合_127" data-name="联合 127" d="M.212,8.095a.727.727,0,0,1,0-1.026L5.829,1.452H3.256A.726.726,0,1,1,3.256,0H7.574A.726.726,0,0,1,8.3.712c0,.014,0,.027,0,.041v4.3a.726.726,0,0,1-1.452,0V2.487L1.239,8.095a.726.726,0,0,1-1.027,0Z" transform="translate(-431.674 264.927)" stroke="rgba(0,0,0,0)" stroke-miterlimit="10" stroke-width="1"/>
    </g>
  </g>
</svg>
