<svg xmlns="http://www.w3.org/2000/svg" width="122.327" height="19.051" viewBox="0 0 122.327 19.051"><defs><style>.a{fill:#5e6b7e;}</style></defs><path class="a" d="M5.485.456h6.163V4.047H.62V.583L6.529-6.574H.671v-3.591h10.85V-6.7ZM22.727,4.047,18.4-1.913v5.96H14.042V-14.8H18.4V-4.383l4.3-5.781h5.374L22.167-3.033l5.96,7.08Zm11.41-17.879V4.047H29.782V-13.832Zm9.856,0a10.4,10.4,0,0,1,4.941,1.121,8.006,8.006,0,0,1,3.273,3.145,9.242,9.242,0,0,1,1.159,4.674A9.261,9.261,0,0,1,52.207-.232a7.964,7.964,0,0,1-3.285,3.158,10.419,10.419,0,0,1-4.928,1.121H37.3V-13.832ZM43.713.278a5.256,5.256,0,0,0,3.846-1.35,5.111,5.111,0,0,0,1.375-3.82,5.2,5.2,0,0,0-1.375-3.846,5.2,5.2,0,0,0-3.846-1.375H41.65V.278Zm16.759-5.2a9.61,9.61,0,0,1,1.146-4.724,8.191,8.191,0,0,1,3.2-3.235,9.28,9.28,0,0,1,4.648-1.159,8.894,8.894,0,0,1,5.45,1.681,8.073,8.073,0,0,1,3.031,4.584H73.155A3.867,3.867,0,0,0,71.64-9.477a4.261,4.261,0,0,0-2.229-.586,4.159,4.159,0,0,0-3.26,1.4A5.42,5.42,0,0,0,64.9-4.918a5.42,5.42,0,0,0,1.248,3.744,4.159,4.159,0,0,0,3.26,1.4A4.261,4.261,0,0,0,71.64-.359a3.867,3.867,0,0,0,1.515-1.706h4.788a8.014,8.014,0,0,1-3.031,4.572,8.94,8.94,0,0,1-5.45,1.668,9.28,9.28,0,0,1-4.648-1.159,8.214,8.214,0,0,1-3.2-3.222A9.538,9.538,0,0,1,60.472-4.918Zm19.28,1.834A8.494,8.494,0,0,1,80.58-6.93a6.174,6.174,0,0,1,2.254-2.547,5.884,5.884,0,0,1,3.184-.891,5.469,5.469,0,0,1,2.636.611,4.5,4.5,0,0,1,1.745,1.6v-2.012h4.355V4.047H90.4V2.035a4.7,4.7,0,0,1-1.77,1.6,5.469,5.469,0,0,1-2.636.611,5.779,5.779,0,0,1-3.158-.9A6.248,6.248,0,0,1,80.58.774,8.574,8.574,0,0,1,79.752-3.084ZM90.4-3.059a3.561,3.561,0,0,0-.9-2.572,2.938,2.938,0,0,0-2.2-.942,2.957,2.957,0,0,0-2.2.93,3.515,3.515,0,0,0-.9,2.56,3.607,3.607,0,0,0,.9,2.585,2.919,2.919,0,0,0,2.2.955,2.938,2.938,0,0,0,2.2-.942A3.561,3.561,0,0,0,90.4-3.059ZM102.266-7.8a5.745,5.745,0,0,1,1.91-1.846,4.926,4.926,0,0,1,2.547-.675v4.61h-1.2a3.669,3.669,0,0,0-2.445.7,3.111,3.111,0,0,0-.815,2.458v6.6H97.911V-10.165h4.355Zm5.68,4.712a8.494,8.494,0,0,1,.828-3.846,6.174,6.174,0,0,1,2.254-2.547,5.884,5.884,0,0,1,3.184-.891,5.592,5.592,0,0,1,2.56.586A4.664,4.664,0,0,1,118.592-8.2v-6.6h4.355V4.047h-4.355V2.009a4.437,4.437,0,0,1-1.745,1.63,5.469,5.469,0,0,1-2.636.611,5.823,5.823,0,0,1-3.184-.9A6.248,6.248,0,0,1,108.774.774,8.574,8.574,0,0,1,107.946-3.084Zm10.646.025a3.561,3.561,0,0,0-.9-2.572,2.938,2.938,0,0,0-2.2-.942,2.957,2.957,0,0,0-2.2.93,3.515,3.515,0,0,0-.9,2.56,3.607,3.607,0,0,0,.9,2.585,2.919,2.919,0,0,0,2.2.955,2.938,2.938,0,0,0,2.2-.942A3.561,3.561,0,0,0,118.592-3.059Z" transform="translate(-0.62 14.8)"/></svg>