<svg xmlns="http://www.w3.org/2000/svg"
    xmlns:xlink="http://www.w3.org/1999/xlink" width="50" height="50" viewBox="0 0 50 50">
    <defs>
        <style>.b{fill:#0145ff;}.c{fill:url(#a);}.d{fill:#0c73fa;}.e{fill:url(#b);}.f{fill:#67ccec;}.g{fill:url(#c);}.h{fill:#51f0ca;}</style>
        <linearGradient id="a" x1="0.5" x2="0.5" y2="1" gradientUnits="objectBoundingBox">
            <stop offset="0" stop-color="#1e22eb" stop-opacity="0"/>
            <stop offset="1" stop-color="#0f1176"/>
        </linearGradient>
        <linearGradient id="b" x1="0.803" y1="-0.147" x2="0.836" y2="0.937" gradientUnits="objectBoundingBox">
            <stop offset="0" stop-color="#0c73fa" stop-opacity="0"/>
            <stop offset="1" stop-color="#063a7d"/>
        </linearGradient>
        <linearGradient id="c" x1="0.522" y1="0.062" x2="0.5" y2="1" gradientUnits="objectBoundingBox">
            <stop offset="0" stop-color="#67ccec" stop-opacity="0"/>
            <stop offset="1" stop-color="#346676"/>
        </linearGradient>
    </defs>
    <g transform="translate(-67 -3495)">
        <g transform="translate(68.464 3497.927)">
            <path class="b" d="M10.175,0H33.161C38.78,0,43.336,4.914,43.336,10.976V22.081H0V10.976C0,4.914,4.555,0,10.175,0Z" transform="translate(1.676 0)"/>
            <path class="c" d="M10.175,0H33.161C38.78,0,43.336,4.914,43.336,10.976V22.081H0V10.976C0,4.914,4.555,0,10.175,0Z" transform="translate(1.676 0)"/>
            <path class="d" d="M10.225,0,32.146.182c5.694.047,10.348,5.046,10.4,11.166l.089,11.485L.089,22.48,0,10.995C-.047,4.876,4.531-.047,10.225,0Z" transform="matrix(0.994, 0.109, -0.109, 0.994, 4.503, 3.95)"/>
            <path class="e" d="M10.225,0,32.146.182c5.694.047,10.348,5.046,10.4,11.166l.089,11.485L.089,22.48,0,10.995C-.047,4.876,4.531-.047,10.225,0Z" transform="matrix(0.994, 0.109, -0.109, 0.994, 4.503, 3.95)"/>
            <path class="f" d="M9.59,0,32.035.145a9.542,9.542,0,0,1,9.714,9.166l.059,8.574L.059,17.616,0,9.042A9.241,9.241,0,0,1,9.59,0Z" transform="translate(0 14.112) rotate(-6.403)"/>
            <path class="g" d="M9.59,0,32.035.145a9.542,9.542,0,0,1,9.714,9.166l.059,8.574L.059,17.616,0,9.042A9.241,9.241,0,0,1,9.59,0Z" transform="translate(0 14.111) rotate(-6.403)"/>
            <path class="h" d="M9.987,0H33.355c5.516,0,9.987,4.823,9.987,10.773V15.96c0,5.95-4.471,10.773-9.987,10.773H9.987C4.471,26.733,0,21.91,0,15.96V10.773C0,4.823,4.471,0,9.987,0Z" transform="translate(1.67 16.835)"/>
        </g>
    </g>
</svg>