<svg xmlns="http://www.w3.org/2000/svg" xmlns:xlink="http://www.w3.org/1999/xlink" width="556" height="717.134" viewBox="0 0 556 717.134"><defs><style>.a{fill:#d9d9d9;}.b,.d{fill:#222325;}.b{opacity:0.664;}.c{fill:#1e5eff;}.e{fill:#0145ff;}.f{fill:none;stroke:#707070;stroke-dasharray:8;}.g{filter:url(#a);}</style><filter id="a" x="0" y="553.134" width="556" height="164" filterUnits="userSpaceOnUse"><feOffset dy="32" input="SourceAlpha"/><feGaussianBlur stdDeviation="19" result="b"/><feFlood flood-opacity="0.251"/><feComposite operator="in" in2="b"/><feComposite in="SourceGraphic"/></filter></defs><g transform="translate(13607 -3357.866)"><g class="g" transform="matrix(1, 0, 0, 1, -13607, 3357.87)"><rect class="a" width="442" height="50" rx="16" transform="translate(57 578.13)"/></g><rect class="b" width="434" height="116" rx="24" transform="translate(-13546 3891.866)"/><g transform="translate(-13579 3357.866)"><rect class="c" width="79" height="80" rx="29" transform="translate(409.359 7.247)"/><path class="d" d="M-2.359,148.214c0-15.492,14.186-28.087,31.779-28.213H417.055a34.5,34.5,0,0,1,22.4,7.818L464.1,148.562l23.633,19.879a26.716,26.716,0,0,1,9.909,20.4V719.891c0,15.582-14.345,28.214-32.04,28.214H30.055c-17.7,0-32.04-12.632-32.04-28.214Z" transform="translate(2.359 -120)"/></g><g transform="translate(-13576 3805)"><path class="e" d="M0,22V0L10.54,8.521a3.588,3.588,0,0,1-.175,5.9Z" transform="translate(-2)"/><line class="f" x2="481" transform="translate(12.5 11.5)"/></g></g></svg>