<svg xmlns="http://www.w3.org/2000/svg" width="22" height="22" viewBox="0 0 22 22"><defs><style>.a{fill:#8f92a1;}</style></defs><g transform="translate(-2 -1.999)"><path class="a" d="M2,22a2,2,0,0,1-2-2V6A2,2,0,0,1,2,4H7.7L14.393.134A1,1,0,0,1,15.758.5L17.779,4H20a2,2,0,0,1,2,2V20a2,2,0,0,1-2,2Zm0-2H20V16.5H16.625A3.569,3.569,0,0,1,13,13a3.569,3.569,0,0,1,3.625-3.5H20V6H2Zm13-7a1.567,1.567,0,0,0,1.624,1.5H20v-3H16.625A1.567,1.567,0,0,0,15,13ZM11.716,3.989l3.749,0-.939-1.626Z" transform="translate(2 1.999)"/></g></svg>
