<svg xmlns="http://www.w3.org/2000/svg" xmlns:xlink="http://www.w3.org/1999/xlink" width="16" height="17.523" viewBox="0 0 16 17.523"><defs><style>.a{fill:#01000d;}.b{clip-path:url(#a);}</style><clipPath id="a"><path class="a" d="M2.666,17.523A2.666,2.666,0,0,1,0,14.857V9.524A2.667,2.667,0,0,1,2.666,6.857h.382v-1.9a4.952,4.952,0,1,1,9.9,0v1.9h.381A2.668,2.668,0,0,1,16,9.524v5.333a2.667,2.667,0,0,1-2.667,2.666Zm8-10.667v-1.9a2.667,2.667,0,1,0-5.333,0v1.9Z"/></clipPath></defs><path class="a" d="M2.666,17.523A2.666,2.666,0,0,1,0,14.857V9.524A2.667,2.667,0,0,1,2.666,6.857h.382v-1.9a4.952,4.952,0,1,1,9.9,0v1.9h.381A2.668,2.668,0,0,1,16,9.524v5.333a2.667,2.667,0,0,1-2.667,2.666Zm8-10.667v-1.9a2.667,2.667,0,1,0-5.333,0v1.9Z"/></svg>