<svg xmlns="http://www.w3.org/2000/svg" width="24" height="24" viewBox="0 0 24 24">

    <g transform="translate(-1.001 -3.05)">
        <path fill="#666" d="M1.708,17A1.7,1.7,0,0,1,0,15.3V1.693A1.7,1.7,0,0,1,1.708,0h17.58A1.7,1.7,0,0,1,21,1.693V15.3A1.707,1.707,0,0,1,19.288,17Zm-.246-1.7a.24.24,0,0,0,.246.24h17.58a.242.242,0,0,0,.246-.24V5.343H1.462V15.3ZM19.534,3.883V1.693a.242.242,0,0,0-.246-.24H1.708a.24.24,0,0,0-.246.24v2.19Zm-7.57,9.232a.729.729,0,1,1,0-1.459h4.395a.729.729,0,1,1,0,1.459Z" transform="translate(2.502 6.504)"/>
    </g>
</svg>