<svg xmlns="http://www.w3.org/2000/svg" xmlns:xlink="http://www.w3.org/1999/xlink" width="24" height="24" viewBox="0 0 24 24"><defs><style>.a,.d{fill:#0145ff;}.a{stroke:rgba(112,112,112,0);}.b{fill:rgba(1,69,255,0);}.c{clip-path:url(#a);}</style><clipPath id="a"><rect class="a" width="24" height="24"/></clipPath></defs><rect class="b" width="24" height="24"/><g class="c"><g transform="translate(-1 -3.001)"><path class="d" d="M19137.207,13260a1.71,1.71,0,0,1-1.707-1.7v-13.6a1.705,1.705,0,0,1,1.707-1.7h17.582a1.706,1.706,0,0,1,1.711,1.7v13.6a1.71,1.71,0,0,1-1.711,1.7Zm9.51-4.62a.735.735,0,0,0,.736.735h4.408a.736.736,0,0,0,0-1.472h-4.408A.736.736,0,0,0,19146.717,13255.381Zm8.316-7.034v-1.466h-18.066v1.466Z" transform="translate(-19133 -13236.5)"/><path class="d" d="M43.235,17.812a.735.735,0,0,1-.735-.735V9.235a.735.735,0,1,1,1.47,0v7.842A.735.735,0,0,1,43.235,17.812Z" transform="translate(-20.47 -1.02)"/><path class="d" d="M3.235,17.812a.735.735,0,0,1-.735-.735V9.235a.735.735,0,1,1,1.47,0v7.842A.735.735,0,0,1,3.235,17.812Z" transform="translate(0 -1.02)"/></g></g></svg>