<svg xmlns="http://www.w3.org/2000/svg" width="10.136" height="11.825" viewBox="0 0 10.136 11.825"><defs><style>.a{fill:#fff;}</style></defs><path class="a" d="M136.447,75.824h-6.757A1.689,1.689,0,0,1,128,74.135V65.688A1.689,1.689,0,0,1,129.689,64h5.064a.421.421,0,0,1,.3.124l2.955,2.955a.422.422,0,0,1,.124.3h0v6.757A1.689,1.689,0,0,1,136.447,75.824Zm-2.112-10.981h-4.646a.845.845,0,0,0-.845.845v8.447a.845.845,0,0,0,.845.845h6.757a.845.845,0,0,0,.845-.845V67.8h-2.534a.422.422,0,0,1-.422-.422Zm.845,2.112h1.514l-1.514-1.514Zm.845,3.379a.422.422,0,0,1-.422.422h-5.068a.422.422,0,1,1,0-.845H135.6A.422.422,0,0,1,136.024,70.334Zm-5.49,2.112H135.6a.422.422,0,0,1,0,.845h-5.068a.422.422,0,1,1,0-.845Z" transform="translate(-128 -63.999)"/></svg>