<svg xmlns="http://www.w3.org/2000/svg" width="28" height="28" viewBox="0 0 28 28">

    <rect opacity="0" width="28" height="28"/>
    <path fill="#8890a1" d="M3.376,16H0V14.4H3.26a3,3,0,0,1,5.88,0H20V16H9.024a2.994,2.994,0,0,1-5.648,0ZM4.94,14.4a1.315,1.315,0,0,0-.14.6,1.4,1.4,0,0,0,2.8,0,1.311,1.311,0,0,0-.14-.6,1.392,1.392,0,0,0-2.52,0ZM10.976,10H0V8.4H10.86a3,3,0,0,1,5.88,0H20V10H16.624a2.994,2.994,0,0,1-5.648,0ZM12.54,8.4a1.315,1.315,0,0,0-.14.6,1.4,1.4,0,0,0,2.8,0,1.311,1.311,0,0,0-.14-.6,1.392,1.392,0,0,0-2.52,0ZM3.376,4H0V2.4H3.26a3,3,0,0,1,5.88,0H20V4H9.024A2.994,2.994,0,0,1,3.376,4ZM4.94,2.4A1.314,1.314,0,0,0,4.8,3,1.4,1.4,0,0,0,7.6,3a1.309,1.309,0,0,0-.14-.6,1.392,1.392,0,0,0-2.52,0Z" transform="translate(4 5)"/>
</svg>