<svg xmlns="http://www.w3.org/2000/svg" width="20" height="20" viewBox="0 0 20 20"><defs><style>.a{fill:#fff;stroke:#707070;opacity:0;}.b{fill:#333;}.c{stroke:none;}.d{fill:none;}</style></defs><g transform="translate(-329 -214)"><g class="a" transform="translate(329 214)"><rect class="c" width="20" height="20"/><rect class="d" x="0.5" y="0.5" width="19" height="19"/></g><g transform="translate(330.768 211.572)"><path class="b" d="M15.436,19.114a.258.258,0,0,1-.257.257H1.286a.258.258,0,0,1-.257-.257V17.056a.258.258,0,0,1,.257-.257H15.179a.258.258,0,0,1,.257.257ZM.772,15.77A.772.772,0,0,0,0,16.542v3.087a.772.772,0,0,0,.772.772H15.693a.772.772,0,0,0,.772-.772V16.542a.772.772,0,0,0-.772-.772Z"/><path class="b" d="M736.515,864a.514.514,0,1,0,.515.514A.514.514,0,0,0,736.515,864Zm1.544,0a.514.514,0,1,0,.515.514A.514.514,0,0,0,738.058,864Z" transform="translate(-724.166 -846.172)"/><path class="b" d="M307.925,399.011l2.568-2.151a.585.585,0,0,0-.752-.9l-1.581,1.324v-6.822c0-.414-.171-.585-.585-.585s-.585.171-.585.585v6.822l-1.581-1.324a.585.585,0,0,0-.752.9l2.568,2.151A.467.467,0,0,0,307.925,399.011Z" transform="translate(-299.342 -385.425)"/></g></g></svg>