<svg xmlns="http://www.w3.org/2000/svg" width="20" height="20" viewBox="0 0 20 20"><defs><style>.a{stroke:rgba(112,112,112,0);opacity:0;}.c{stroke:none;}.d{fill:none;}</style></defs><g transform="translate(-95 -757)"><g class="a" transform="translate(95 757)"><rect class="c" width="20" height="20"/><rect class="d" x="0.5" y="0.5" width="19" height="19"/></g><g transform="translate(98 759.434)"><path class="b" d="M28.191,23.376h-5.5a.688.688,0,0,1,0-1.376h5.5a.688.688,0,1,1,0,1.376Z" transform="translate(-15.122 -15.121)"/><path class="b" d="M32.688,21.5a.688.688,0,0,1-.486-1.174l1.577-1.577L32.2,17.174a.688.688,0,1,1,.973-.973l2.064,2.064a.688.688,0,0,1,0,.973L33.174,21.3A.686.686,0,0,1,32.688,21.5Z" transform="translate(-21.683 -11.185)"/><path class="b" d="M.064-2A2.066,2.066,0,0,1,2.127.064,2.066,2.066,0,0,1,.064,2.127,2.066,2.066,0,0,1-2,.064,2.066,2.066,0,0,1,.064-2Zm0,2.751A.689.689,0,0,0,.751.064.689.689,0,0,0,.064-.624.689.689,0,0,0-.624.064.689.689,0,0,0,.064.751Z" transform="translate(6.127 7.503)"/><path class="b" d="M9.566,17.133a7.566,7.566,0,1,1,5.3-12.97A7.614,7.614,0,0,1,15.886,5.4a.688.688,0,0,1-1.148.758A6.236,6.236,0,0,0,13.9,5.145a6.191,6.191,0,1,0,0,8.842,6.236,6.236,0,0,0,.838-1.017.688.688,0,1,1,1.148.758,7.615,7.615,0,0,1-1.023,1.241A7.524,7.524,0,0,1,9.566,17.133Z" transform="translate(-2 -2)"/></g></g></svg>
