<svg xmlns="http://www.w3.org/2000/svg"
    xmlns:xlink="http://www.w3.org/1999/xlink" width="28" height="28" viewBox="0 0 28 28">
    <defs>
        <style>.b{clip-path:url(#a);}.c{fill:#6a606a;}.d{clip-path:url(#b);}</style>
        <clipPath id="a">
            <circle class="a" cx="14" cy="14" r="14"/>
        </clipPath>

    </defs>
    <g class="b">
        <path class="c" d="M-56.3-9.041H41.545a5.307,5.307,0,0,1,5.306,5.306v53.3a5.306,5.306,0,0,1-5.306,5.306H-56.3a5.305,5.305,0,0,1-5.306-5.3v-53.3A5.307,5.307,0,0,1-56.3-9.041Z"/>
        <g class="d">
            <g opacity="0.867">
                <g opacity="0.36">
                    <path fill="#9b8da7" d="M37.554,11.564a45.559,45.559,0,0,1,9.118.919A45.235,45.235,0,0,1,81.881,47.691a45.668,45.668,0,0,1,0,18.236,45.235,45.235,0,0,1-35.21,35.209,45.673,45.673,0,0,1-18.237,0A45.236,45.236,0,0,1-6.773,65.928a45.668,45.668,0,0,1,0-18.236A45.235,45.235,0,0,1,28.435,12.483,45.561,45.561,0,0,1,37.554,11.564Zm0,89.867a44.907,44.907,0,0,0,8.993-.907A44.606,44.606,0,0,0,81.269,65.8a45.049,45.049,0,0,0,0-17.986A44.608,44.608,0,0,0,46.547,13.1a45.049,45.049,0,0,0-17.986,0A44.607,44.607,0,0,0-6.161,47.816a45.049,45.049,0,0,0,0,17.986A44.606,44.606,0,0,0,28.56,100.525,44.908,44.908,0,0,0,37.554,101.431Z"/>
                    <path fill="#9b8da7" d="M37.554,13.5a43.663,43.663,0,0,1,8.728.88,43.3,43.3,0,0,1,33.7,33.7,43.735,43.735,0,0,1,0,17.456,43.3,43.3,0,0,1-33.7,33.7,43.735,43.735,0,0,1-17.456,0,43.261,43.261,0,0,1-33.7-33.7,43.735,43.735,0,0,1,0-17.456,43.264,43.264,0,0,1,33.7-33.7A43.656,43.656,0,0,1,37.554,13.5Zm0,85.992a42.979,42.979,0,0,0,8.6-.867A42.672,42.672,0,0,0,79.371,65.409a43.111,43.111,0,0,0,0-17.2A42.669,42.669,0,0,0,46.157,14.992a43.111,43.111,0,0,0-17.205,0A42.671,42.671,0,0,0-4.263,48.206a43.111,43.111,0,0,0,0,17.205A42.669,42.669,0,0,0,28.952,98.626,43,43,0,0,0,37.554,99.493Z"/>
                    <path fill="#9b8da7" d="M37.554,15.439a41.691,41.691,0,0,1,8.337.84A41.356,41.356,0,0,1,78.083,48.472a41.761,41.761,0,0,1,0,16.675A41.359,41.359,0,0,1,45.891,97.339a41.761,41.761,0,0,1-16.675,0A41.35,41.35,0,0,1-2.977,65.147a41.761,41.761,0,0,1,0-16.675A41.364,41.364,0,0,1,29.216,16.279,41.693,41.693,0,0,1,37.554,15.439Zm0,82.117a41.038,41.038,0,0,0,8.212-.828A40.731,40.731,0,0,0,77.472,65.022a41.137,41.137,0,0,0,0-16.424A40.73,40.73,0,0,0,45.766,16.891a41.137,41.137,0,0,0-16.424,0A40.73,40.73,0,0,0-2.365,48.6a41.137,41.137,0,0,0,0,16.424A40.73,40.73,0,0,0,29.341,96.728,41.04,41.04,0,0,0,37.554,97.556Z"/>
                    <path fill="#9b8da7" d="M37.553,17.376a39.721,39.721,0,0,1,7.947.8A39.443,39.443,0,0,1,76.188,48.86a39.823,39.823,0,0,1,0,15.894A39.444,39.444,0,0,1,45.5,95.443a39.823,39.823,0,0,1-15.894,0A39.444,39.444,0,0,1-1.08,64.758a39.823,39.823,0,0,1,0-15.894A39.443,39.443,0,0,1,29.6,18.176,39.74,39.74,0,0,1,37.553,17.376Zm0,78.242a39.068,39.068,0,0,0,7.822-.788,38.8,38.8,0,0,0,30.2-30.2,39.2,39.2,0,0,0,0-15.643,38.8,38.8,0,0,0-30.2-30.2,39.2,39.2,0,0,0-15.643,0,38.793,38.793,0,0,0-30.2,30.2,39.2,39.2,0,0,0,0,15.643,38.793,38.793,0,0,0,30.2,30.2A39.069,39.069,0,0,0,37.553,95.618Z"/>
                    <path fill="#9b8da7" d="M37.558,19.314a37.823,37.823,0,0,1,7.556.762A37.482,37.482,0,0,1,74.288,49.253a37.849,37.849,0,0,1,0,15.113A37.488,37.488,0,0,1,45.107,93.544a37.849,37.849,0,0,1-15.113,0A37.461,37.461,0,0,1,.82,64.366a37.849,37.849,0,0,1,0-15.113A37.481,37.481,0,0,1,30,20.076,37.792,37.792,0,0,1,37.558,19.314Zm0,74.367a37.1,37.1,0,0,0,7.431-.749A36.856,36.856,0,0,0,73.676,64.241a37.225,37.225,0,0,0,0-14.862A36.862,36.862,0,0,0,44.985,20.687a37.225,37.225,0,0,0-14.862,0A36.866,36.866,0,0,0,1.431,49.378a37.225,37.225,0,0,0,0,14.862A36.856,36.856,0,0,0,30.123,92.932,37.136,37.136,0,0,0,37.558,93.681Z"/>
                    <path fill="#9b8da7" d="M37.553,21.251a35.78,35.78,0,0,1,7.166.722,35.546,35.546,0,0,1,27.67,27.67,35.911,35.911,0,0,1,0,14.332A35.544,35.544,0,0,1,44.72,91.645a35.911,35.911,0,0,1-14.332,0A35.542,35.542,0,0,1,2.717,63.975a35.911,35.911,0,0,1,0-14.332,35.546,35.546,0,0,1,27.67-27.67A35.78,35.78,0,0,1,37.553,21.251Zm0,70.492a35.128,35.128,0,0,0,7.041-.71A34.927,34.927,0,0,0,71.778,63.851a35.292,35.292,0,0,0,0-14.082A34.921,34.921,0,0,0,44.6,22.585a35.292,35.292,0,0,0-14.082,0A34.917,34.917,0,0,0,3.329,49.768a35.292,35.292,0,0,0,0,14.082A34.917,34.917,0,0,0,30.512,91.033,35.128,35.128,0,0,0,37.553,91.743Z"/>
                    <path fill="#9b8da7" d="M37.554,23.189a33.848,33.848,0,0,1,6.779.683A33.61,33.61,0,0,1,70.492,50.034a33.936,33.936,0,0,1,0,13.551A33.605,33.605,0,0,1,44.333,89.747a33.937,33.937,0,0,1-13.551,0A33.61,33.61,0,0,1,4.616,63.589a33.937,33.937,0,0,1,0-13.551A33.607,33.607,0,0,1,30.778,23.872,33.892,33.892,0,0,1,37.554,23.189Zm0,66.617a33.229,33.229,0,0,0,6.65-.67A32.99,32.99,0,0,0,69.881,63.46a33.312,33.312,0,0,0,0-13.3A32.98,32.98,0,0,0,44.2,24.484a33.313,33.313,0,0,0-13.3,0A32.98,32.98,0,0,0,5.228,50.159a33.313,33.313,0,0,0,0,13.3A32.988,32.988,0,0,0,30.9,89.136,33.239,33.239,0,0,0,37.554,89.806Z"/>
                    <path fill="#9b8da7" d="M37.553,25.126a31.986,31.986,0,0,1,6.385.644A31.668,31.668,0,0,1,68.593,50.426a32,32,0,0,1,0,12.77A31.67,31.67,0,0,1,43.938,87.849a32,32,0,0,1-12.77,0A31.67,31.67,0,0,1,6.514,63.194a32,32,0,0,1,0-12.77A31.668,31.668,0,0,1,31.17,25.77,31.974,31.974,0,0,1,37.553,25.126Zm0,62.742a31.259,31.259,0,0,0,6.26-.631A31.05,31.05,0,0,0,67.98,63.069a31.38,31.38,0,0,0,0-12.52A31.048,31.048,0,0,0,43.813,26.381a31.38,31.38,0,0,0-12.52,0A31.051,31.051,0,0,0,7.125,50.55a31.38,31.38,0,0,0,0,12.52A31.052,31.052,0,0,0,31.294,87.236,31.258,31.258,0,0,0,37.553,87.868Z"/>
                    <path fill="#9b8da7" d="M37.554,27.064a29.954,29.954,0,0,1,5.995.6A29.74,29.74,0,0,1,66.695,50.815a30.024,30.024,0,0,1,0,11.989A29.732,29.732,0,0,1,43.548,85.951a30.024,30.024,0,0,1-11.989,0A29.773,29.773,0,0,1,8.408,62.8a30.024,30.024,0,0,1,0-11.989A29.78,29.78,0,0,1,31.559,27.664,29.954,29.954,0,0,1,37.554,27.064Zm0,58.867a29.3,29.3,0,0,0,5.869-.592,29.136,29.136,0,0,0,22.664-22.66,29.405,29.405,0,0,0,0-11.739A29.144,29.144,0,0,0,43.423,28.277a29.405,29.405,0,0,0-11.739,0A29.142,29.142,0,0,0,9.021,50.94a29.405,29.405,0,0,0,0,11.739A29.144,29.144,0,0,0,31.685,85.343,29.292,29.292,0,0,0,37.554,85.931Z"/>
                    <path fill="#9b8da7" d="M37.553,29a28.013,28.013,0,0,1,5.6.565A27.794,27.794,0,0,1,64.8,51.205a28.086,28.086,0,0,1,0,11.208A27.793,27.793,0,0,1,43.158,84.052a28.087,28.087,0,0,1-11.208,0A27.793,27.793,0,0,1,10.31,62.414a28.087,28.087,0,0,1,0-11.208,27.8,27.8,0,0,1,21.635-21.64A28.019,28.019,0,0,1,37.553,29Zm0,54.992a27.326,27.326,0,0,0,5.479-.552,27.178,27.178,0,0,0,21.153-21.15,27.468,27.468,0,0,0,0-10.958,27.177,27.177,0,0,0-21.15-21.156,27.468,27.468,0,0,0-10.958,0A27.179,27.179,0,0,0,10.921,51.328a27.468,27.468,0,0,0,0,10.958A27.18,27.18,0,0,0,32.072,83.439,27.348,27.348,0,0,0,37.553,83.993Z"/>
                    <path fill="#9b8da7" d="M37.554,30.939a26.091,26.091,0,0,1,5.214.526A25.863,25.863,0,0,1,62.9,51.6a26.112,26.112,0,0,1,0,10.427A25.864,25.864,0,0,1,42.768,82.155a26.112,26.112,0,0,1-10.427,0A25.856,25.856,0,0,1,12.209,62.023a26.112,26.112,0,0,1,0-10.427A25.855,25.855,0,0,1,32.34,31.465,26.091,26.091,0,0,1,37.554,30.939Zm0,51.118a25.211,25.211,0,1,0-9.826-1.985,25.086,25.086,0,0,0,4.738,1.467A25.425,25.425,0,0,0,37.554,82.057Z"/>
                    <path fill="#9b8da7" d="M37.553,32.876a24.185,24.185,0,0,1,4.823.486A23.925,23.925,0,0,1,61,51.985a24.174,24.174,0,0,1,0,9.646A23.925,23.925,0,0,1,42.378,80.256a24.174,24.174,0,0,1-9.646,0A23.927,23.927,0,0,1,14.106,61.632a24.174,24.174,0,0,1,0-9.646A23.927,23.927,0,0,1,32.73,33.362,24.185,24.185,0,0,1,37.553,32.876Zm0,47.243a23.274,23.274,0,1,0-9.077-1.832A23.192,23.192,0,0,0,37.553,80.119Z"/>
                    <path fill="#9b8da7" d="M37.558,34.814a21.957,21.957,0,1,1-8.566,1.729A21.9,21.9,0,0,1,37.558,34.814Zm0,43.368A21.346,21.346,0,1,0,29.232,76.5,21.265,21.265,0,0,0,37.558,78.182Z"/>
                    <path fill="#9b8da7" d="M37.554,36.751a20.024,20.024,0,1,1-7.808,1.576A19.967,19.967,0,0,1,37.554,36.751Zm0,39.493a19.408,19.408,0,1,0-7.564-1.528A19.337,19.337,0,0,0,37.554,76.244Z"/>
                    <path fill="#9b8da7" d="M37.554,38.689A18.09,18.09,0,1,1,30.5,40.113,18.039,18.039,0,0,1,37.554,38.689Zm0,35.618a17.488,17.488,0,1,0-6.809-1.378A17.415,17.415,0,0,0,37.554,74.307Z"/>
                    <path fill="#9b8da7" d="M37.554,40.626a16.14,16.14,0,1,1-6.3,1.272A16.178,16.178,0,0,1,37.554,40.626Zm0,31.743A15.555,15.555,0,1,0,31.5,71.146,15.563,15.563,0,0,0,37.554,72.369Z"/>
                    <path fill="#9b8da7" d="M37.554,42.564a14.2,14.2,0,1,1-5.546,1.12A14.242,14.242,0,0,1,37.554,42.564Zm0,27.868a13.44,13.44,0,1,0-5.3-1.073A13.627,13.627,0,0,0,37.554,70.432Z"/>
                    <path fill="#9b8da7" d="M37.554,44.5a12.284,12.284,0,1,1-4.792.967A12.3,12.3,0,0,1,37.554,44.5Zm0,23.993A11.68,11.68,0,1,0,33,67.576,11.688,11.688,0,0,0,37.554,68.494Z"/>
                    <path fill="#9b8da7" d="M37.554,46.438a10.376,10.376,0,1,1-4.037.815A10.368,10.368,0,0,1,37.554,46.438Zm0,20.118a9.744,9.744,0,1,0-3.794-.766A9.75,9.75,0,0,0,37.554,66.556Z"/>
                    <path fill="#9b8da7" d="M37.554,48.376a8.388,8.388,0,1,1-3.283.663A8.432,8.432,0,0,1,37.554,48.376Zm0,16.243A7.788,7.788,0,1,0,34.514,64,7.807,7.807,0,0,0,37.554,64.619Z"/>
                    <path fill="#9b8da7" d="M37.558,50.313a6.528,6.528,0,1,1-2.533.511A6.494,6.494,0,0,1,37.558,50.313Zm0,12.368a5.85,5.85,0,1,0-2.29-.461A5.87,5.87,0,0,0,37.558,62.681Z"/>
                    <path fill="#9b8da7" d="M37.554,52.251a4.559,4.559,0,1,1-4.559,4.559,4.56,4.56,0,0,1,4.559-4.559Zm0,8.493a3.934,3.934,0,0,0,0-7.869h0a3.934,3.934,0,0,0-3.935,3.933v0a3.934,3.934,0,0,0,3.934,3.934Z"/>
                </g>
                <g class="f">
                    <path fill="#9b8da7" d="M-10.285-65.7a41.239,41.239,0,0,1,8.255.832A40.745,40.745,0,0,1,12.618-58.7a41.082,41.082,0,0,1,14.84,18.018,40.722,40.722,0,0,1,2.387,7.69,41.344,41.344,0,0,1,0,16.51A40.744,40.744,0,0,1,23.681-1.834,41.08,41.08,0,0,1,5.659,13.006a40.722,40.722,0,0,1-7.69,2.387,41.344,41.344,0,0,1-16.51,0A40.732,40.732,0,0,1-33.188,9.229,41.077,41.077,0,0,1-48.029-8.793a40.722,40.722,0,0,1-2.387-7.69,41.344,41.344,0,0,1,0-16.51A40.722,40.722,0,0,1-44.248-47.64,41.085,41.085,0,0,1-26.23-62.481a40.794,40.794,0,0,1,7.69-2.387A41.239,41.239,0,0,1-10.285-65.7Zm0,81.3a40.587,40.587,0,0,0,8.13-.82A40.112,40.112,0,0,0,12.268,8.711,40.458,40.458,0,0,0,26.883-9.036a40.174,40.174,0,0,0,2.35-7.572,40.725,40.725,0,0,0,0-16.26,40.13,40.13,0,0,0-6.069-14.423A40.46,40.46,0,0,0,5.416-61.906a40.187,40.187,0,0,0-7.571-2.35,40.725,40.725,0,0,0-16.26,0,40.127,40.127,0,0,0-14.424,6.069A40.454,40.454,0,0,0-47.454-40.439a40.124,40.124,0,0,0-2.35,7.572,40.725,40.725,0,0,0,0,16.26A40.115,40.115,0,0,0-43.735-2.184,40.454,40.454,0,0,0-25.987,12.431a40.051,40.051,0,0,0,7.572,2.35A40.586,40.586,0,0,0-10.285,15.6Z"/>
                    <path fill="#9b8da7" d="M-10.285-63.947a39.557,39.557,0,0,1,7.9.8,39.006,39.006,0,0,1,14.023,5.9A39.328,39.328,0,0,1,25.843-40a39.005,39.005,0,0,1,2.285,7.361,39.576,39.576,0,0,1,0,15.8,38.99,38.99,0,0,1-5.9,14.021A39.324,39.324,0,0,1,4.977,11.391a39.005,39.005,0,0,1-7.361,2.285,39.576,39.576,0,0,1-15.8,0,38.99,38.99,0,0,1-14.021-5.9A39.321,39.321,0,0,1-46.414-9.475a39.056,39.056,0,0,1-2.281-7.36,39.576,39.576,0,0,1,0-15.8,39.008,39.008,0,0,1,5.9-14.025A39.331,39.331,0,0,1-25.547-60.866a39.057,39.057,0,0,1,7.36-2.281A39.569,39.569,0,0,1-10.285-63.947Zm0,77.8a38.84,38.84,0,0,0,7.777-.784,38.354,38.354,0,0,0,13.8-5.806A38.7,38.7,0,0,0,25.272-9.714a38.471,38.471,0,0,0,2.248-7.242,38.972,38.972,0,0,0,0-15.553,38.361,38.361,0,0,0-5.806-13.8A38.7,38.7,0,0,0,4.734-60.291a38.471,38.471,0,0,0-7.242-2.248,38.972,38.972,0,0,0-15.553,0,38.389,38.389,0,0,0-13.8,5.806A38.7,38.7,0,0,0-45.839-39.756a38.325,38.325,0,0,0-2.248,7.242,38.972,38.972,0,0,0,0,15.553,38.354,38.354,0,0,0,5.806,13.8A38.7,38.7,0,0,0-25.3,10.819a38.312,38.312,0,0,0,7.243,2.248A38.832,38.832,0,0,0-10.285,13.853Z"/>
                    <path fill="#9b8da7" d="M-10.285-62.194a37.827,37.827,0,0,1,7.549.761,37.241,37.241,0,0,1,13.394,5.639,37.569,37.569,0,0,1,13.571,16.48,37.279,37.279,0,0,1,2.183,7.031,37.821,37.821,0,0,1,0,15.1A37.256,37.256,0,0,1,20.775-3.794,37.56,37.56,0,0,1,4.3,9.776a37.288,37.288,0,0,1-7.032,2.183,37.821,37.821,0,0,1-15.1,0A37.243,37.243,0,0,1-31.231,6.323,37.566,37.566,0,0,1-44.8-10.157a37.278,37.278,0,0,1-2.183-7.031,37.821,37.821,0,0,1,0-15.1A37.239,37.239,0,0,1-41.342-45.68,37.571,37.571,0,0,1-24.865-59.25a37.288,37.288,0,0,1,7.032-2.183A37.817,37.817,0,0,1-10.285-62.194Zm0,74.29a37.09,37.09,0,0,0,7.423-.748A36.632,36.632,0,0,0,10.309,5.806,36.943,36.943,0,0,0,23.658-10.4,36.585,36.585,0,0,0,25.8-17.313a37.187,37.187,0,0,0,0-14.847,36.643,36.643,0,0,0-5.546-13.17A36.946,36.946,0,0,0,4.052-58.675a36.68,36.68,0,0,0-6.913-2.146,37.187,37.187,0,0,0-14.847,0,36.635,36.635,0,0,0-13.17,5.542,36.948,36.948,0,0,0-13.345,16.2,36.6,36.6,0,0,0-2.146,6.914,37.187,37.187,0,0,0,0,14.847A36.621,36.621,0,0,0-40.828-4.144,36.939,36.939,0,0,0-24.622,9.206a36.585,36.585,0,0,0,6.913,2.146A37.1,37.1,0,0,0-10.285,12.1Z"/>
                    <path fill="#9b8da7" d="M-10.29-60.442a35.98,35.98,0,0,1,7.2.725A35.519,35.519,0,0,1,9.677-54.342,35.809,35.809,0,0,1,22.61-38.636a35.542,35.542,0,0,1,2.081,6.7,36.057,36.057,0,0,1,0,14.391A35.515,35.515,0,0,1,19.318-4.778,35.8,35.8,0,0,1,3.61,8.158a35.542,35.542,0,0,1-6.7,2.081,36.057,36.057,0,0,1-14.391,0A35.5,35.5,0,0,1-30.249,4.866,35.807,35.807,0,0,1-43.184-10.842a35.52,35.52,0,0,1-2.081-6.7,36.057,36.057,0,0,1,0-14.391A35.506,35.506,0,0,1-39.89-44.7,35.808,35.808,0,0,1-24.184-57.636a35.52,35.52,0,0,1,6.7-2.081A35.994,35.994,0,0,1-10.29-60.442Zm0,70.784a35.271,35.271,0,0,0,7.07-.713A34.881,34.881,0,0,0,9.323,4.351a35.18,35.18,0,0,0,12.71-15.434,34.868,34.868,0,0,0,2.044-6.584,35.433,35.433,0,0,0,0-14.14A34.881,34.881,0,0,0,18.8-44.35,35.184,35.184,0,0,0,3.369-57.061,34.941,34.941,0,0,0-3.215-59.1a35.433,35.433,0,0,0-14.14,0A34.885,34.885,0,0,0-29.9-53.827a35.188,35.188,0,0,0-12.71,15.435,34.868,34.868,0,0,0-2.044,6.584,35.433,35.433,0,0,0,0,14.14A34.885,34.885,0,0,0-39.375-5.124,35.188,35.188,0,0,0-23.94,7.586,34.868,34.868,0,0,0-17.356,9.63,35.3,35.3,0,0,0-10.29,10.342Z"/>
                    <path fill="#9b8da7" d="M-10.285-58.689A34.257,34.257,0,0,1-3.443-58,33.762,33.762,0,0,1,8.7-52.889,34.049,34.049,0,0,1,21-37.952a33.769,33.769,0,0,1,1.978,6.373,34.267,34.267,0,0,1,0,13.684,33.784,33.784,0,0,1-5.112,12.14A34.049,34.049,0,0,1,2.926,6.545,33.769,33.769,0,0,1-3.447,8.523a34.267,34.267,0,0,1-13.684,0A33.77,33.77,0,0,1-29.268,3.411a34.049,34.049,0,0,1-12.3-14.937A33.783,33.783,0,0,1-43.547-17.9a34.268,34.268,0,0,1,0-13.684,33.767,33.767,0,0,1,5.11-12.141A34.049,34.049,0,0,1-23.5-56.02,33.812,33.812,0,0,1-17.128-58,34.267,34.267,0,0,1-10.285-58.689Zm0,67.279a33.531,33.531,0,0,0,6.717-.677A33.144,33.144,0,0,0,8.348,2.9,33.425,33.425,0,0,0,20.423-11.765a33.155,33.155,0,0,0,1.94-6.256,33.648,33.648,0,0,0,0-13.434,33.159,33.159,0,0,0-5.014-11.916A33.432,33.432,0,0,0,2.687-55.446a33.237,33.237,0,0,0-6.256-1.943,33.68,33.68,0,0,0-13.433,0,33.152,33.152,0,0,0-11.917,5.016A33.428,33.428,0,0,0-40.994-37.71a33.163,33.163,0,0,0-1.943,6.256,33.648,33.648,0,0,0,0,13.434A33.148,33.148,0,0,0-37.921-6.1,33.416,33.416,0,0,0-23.258,5.971,33.082,33.082,0,0,0-17,7.911,33.525,33.525,0,0,0-10.285,8.59Z"/>
                    <path fill="#9b8da7" d="M-10.284-56.936a32.518,32.518,0,0,1,6.489.654A32.024,32.024,0,0,1,7.716-51.436,32.293,32.293,0,0,1,19.383-37.271a32.052,32.052,0,0,1,1.876,6.044,32.519,32.519,0,0,1,0,12.978A32.02,32.02,0,0,1,16.416-6.736,32.289,32.289,0,0,1,2.248,4.931,32.029,32.029,0,0,1-3.8,6.807a32.519,32.519,0,0,1-12.978,0,32.021,32.021,0,0,1-11.51-4.843A32.29,32.29,0,0,1-39.954-12.2a32.039,32.039,0,0,1-1.876-6.045,32.519,32.519,0,0,1,0-12.978,32.014,32.014,0,0,1,4.846-11.509,32.294,32.294,0,0,1,14.165-11.67,32.039,32.039,0,0,1,6.045-1.876A32.52,32.52,0,0,1-10.284-56.936Zm0,63.773A31.784,31.784,0,0,0-3.92,6.2,31.386,31.386,0,0,0,7.37,1.445,31.672,31.672,0,0,0,18.81-12.447a31.434,31.434,0,0,0,1.84-5.926,31.9,31.9,0,0,0,0-12.727A31.4,31.4,0,0,0,15.9-42.39,31.673,31.673,0,0,0,2.005-53.831,31.44,31.44,0,0,0-3.922-55.67a31.9,31.9,0,0,0-12.727,0,31.4,31.4,0,0,0-11.29,4.751,31.671,31.671,0,0,0-11.44,13.892,31.434,31.434,0,0,0-1.84,5.926,31.9,31.9,0,0,0,0,12.727,31.4,31.4,0,0,0,4.751,11.29A31.658,31.658,0,0,0-22.576,4.356,31.361,31.361,0,0,0-16.65,6.2,31.8,31.8,0,0,0-10.284,6.837Z"/>
                    <path fill="#9b8da7" d="M-10.285-55.183a30.69,30.69,0,0,1,6.136.619A30.289,30.289,0,0,1,6.738-49.983a30.531,30.531,0,0,1,11.031,13.4,30.312,30.312,0,0,1,1.774,5.715,30.729,30.729,0,0,1,0,12.271A30.281,30.281,0,0,1,14.962-7.715,30.54,30.54,0,0,1,1.569,3.317,30.239,30.239,0,0,1-4.146,5.091a30.729,30.729,0,0,1-12.271,0A30.264,30.264,0,0,1-27.3.51,30.527,30.527,0,0,1-38.338-12.883,30.278,30.278,0,0,1-40.112-18.6a30.729,30.729,0,0,1,0-12.271A30.289,30.289,0,0,1-35.531-41.76a30.535,30.535,0,0,1,13.4-11.03,30.337,30.337,0,0,1,5.71-1.774A30.69,30.69,0,0,1-10.285-55.183Zm0,60.267a29.954,29.954,0,0,0,6.01-.606A29.656,29.656,0,0,0,6.388-.009a29.909,29.909,0,0,0,10.8-13.121,29.65,29.65,0,0,0,1.738-5.6,30.11,30.11,0,0,0,0-12.021,29.664,29.664,0,0,0-4.487-10.663,29.909,29.909,0,0,0-13.121-10.8,29.659,29.659,0,0,0-5.593-1.739,30.11,30.11,0,0,0-12.021,0,29.651,29.651,0,0,0-10.662,4.487,29.914,29.914,0,0,0-10.8,13.121,29.673,29.673,0,0,0-1.738,5.6,30.11,30.11,0,0,0,0,12.021,29.657,29.657,0,0,0,4.482,10.66,29.9,29.9,0,0,0,13.121,10.8,29.65,29.65,0,0,0,5.6,1.738A30.012,30.012,0,0,0-10.285,5.084Z"/>
                    <path fill="#9b8da7" d="M-10.285-53.43a28.941,28.941,0,0,1,5.782.583A28.556,28.556,0,0,1,5.758-48.53a28.782,28.782,0,0,1,10.4,12.624,28.6,28.6,0,0,1,1.664,5.387,28.981,28.981,0,0,1,0,11.565A28.536,28.536,0,0,1,13.5-8.694,28.77,28.77,0,0,1,.88,1.706,28.542,28.542,0,0,1-4.5,3.37a28.981,28.981,0,0,1-11.565,0A28.536,28.536,0,0,1-26.328-.948a28.771,28.771,0,0,1-10.4-12.624A28.551,28.551,0,0,1-38.4-18.955a28.981,28.981,0,0,1,0-11.565,28.542,28.542,0,0,1,4.317-10.26,28.777,28.777,0,0,1,12.624-10.4,28.59,28.59,0,0,1,5.387-1.667A28.941,28.941,0,0,1-10.285-53.43Zm0,56.762a28.214,28.214,0,0,0,5.657-.57A27.909,27.909,0,0,0,5.408-1.461a28.145,28.145,0,0,0,10.17-12.35,27.974,27.974,0,0,0,1.635-5.268,28.357,28.357,0,0,0,0-11.314A27.914,27.914,0,0,0,12.99-40.43,28.154,28.154,0,0,0,.641-50.6a27.914,27.914,0,0,0-5.269-1.636,28.357,28.357,0,0,0-11.314,0,27.929,27.929,0,0,0-10.036,4.224,28.147,28.147,0,0,0-10.17,12.349,27.914,27.914,0,0,0-1.636,5.269,28.357,28.357,0,0,0,0,11.314A27.9,27.9,0,0,0-33.56-9.044,28.145,28.145,0,0,0-21.21,1.126a27.9,27.9,0,0,0,5.268,1.635A28.289,28.289,0,0,0-10.285,3.332Z"/>
                    <path fill="#9b8da7" d="M-10.286-51.678a27.2,27.2,0,0,1,5.429.547,26.8,26.8,0,0,1,9.631,4.053,27.021,27.021,0,0,1,9.76,11.853,26.805,26.805,0,0,1,1.57,5.057,27.191,27.191,0,0,1,0,10.858,26.8,26.8,0,0,1-4.051,9.632A27.014,27.014,0,0,1,.2.082a26.805,26.805,0,0,1-5.057,1.57,27.191,27.191,0,0,1-10.858,0A26.794,26.794,0,0,1-25.349-2.4a27.021,27.021,0,0,1-9.76-11.853,26.783,26.783,0,0,1-1.57-5.057,27.191,27.191,0,0,1,0-10.858A26.8,26.8,0,0,1-32.626-39.8a27.021,27.021,0,0,1,11.853-9.76,26.805,26.805,0,0,1,5.057-1.57A27.2,27.2,0,0,1-10.286-51.678Zm0,53.256a26.5,26.5,0,0,0,5.3-.535,26.157,26.157,0,0,0,9.409-3.96A26.394,26.394,0,0,0,13.958-14.5a26.185,26.185,0,0,0,1.533-4.939,26.572,26.572,0,0,0,0-10.608,26.174,26.174,0,0,0-3.96-9.409A26.4,26.4,0,0,0-.042-48.986a26.194,26.194,0,0,0-4.94-1.533,26.572,26.572,0,0,0-10.608,0A26.174,26.174,0,0,0-25-46.559a26.391,26.391,0,0,0-9.535,11.581,26.156,26.156,0,0,0-1.533,4.936,26.572,26.572,0,0,0,0,10.608,26.174,26.174,0,0,0,3.96,9.409A26.391,26.391,0,0,0-20.526-.49a26.184,26.184,0,0,0,4.939,1.533A26.512,26.512,0,0,0-10.286,1.578Z"/>
                    <path fill="#9b8da7" d="M-10.285-49.925a25.381,25.381,0,0,1,5.076.512A25.073,25.073,0,0,1,3.8-45.625a25.264,25.264,0,0,1,9.13,11.083A25.088,25.088,0,0,1,14.4-29.814a25.442,25.442,0,0,1,0,10.152,25.057,25.057,0,0,1-3.79,9.007A25.253,25.253,0,0,1-.481-1.525,25.066,25.066,0,0,1-5.209-.057a25.406,25.406,0,0,1-10.152,0,25.039,25.039,0,0,1-9.007-3.79,25.257,25.257,0,0,1-9.126-11.086,25.072,25.072,0,0,1-1.467-4.729,25.442,25.442,0,0,1,0-10.152,25.061,25.061,0,0,1,3.788-9.011A25.263,25.263,0,0,1-20.09-47.946a25.072,25.072,0,0,1,4.729-1.467A25.374,25.374,0,0,1-10.285-49.925Zm0,49.751a24.722,24.722,0,0,0,4.951-.5,24.432,24.432,0,0,0,8.783-3.7,24.639,24.639,0,0,0,8.9-10.807,24.445,24.445,0,0,0,1.431-4.61,24.813,24.813,0,0,0,0-9.9,24.44,24.44,0,0,0-3.7-8.783,24.639,24.639,0,0,0-10.807-8.9A24.439,24.439,0,0,0-5.335-48.8a24.813,24.813,0,0,0-9.9,0,24.432,24.432,0,0,0-8.783,3.7,24.639,24.639,0,0,0-8.9,10.807,24.467,24.467,0,0,0-1.431,4.61,24.813,24.813,0,0,0,0,9.9A24.432,24.432,0,0,0-30.649-11,24.633,24.633,0,0,0-19.842-2.1a24.468,24.468,0,0,0,4.61,1.431A24.679,24.679,0,0,0-10.285-.174Z"/>
                    <path fill="#9b8da7" d="M-10.285-48.172a23.332,23.332,0,0,1,13.1,4,23.5,23.5,0,0,1,8.49,10.31A23.4,23.4,0,0,1,9.144-11.637a23.5,23.5,0,0,1-10.31,8.49A23.4,23.4,0,0,1-23.388-5.3a23.491,23.491,0,0,1-8.49-10.31A23.4,23.4,0,0,1-29.72-37.84a23.5,23.5,0,0,1,10.313-8.49A23.3,23.3,0,0,1-10.285-48.172Zm0,46.245a22.7,22.7,0,0,0,12.753-3.9,22.876,22.876,0,0,0,8.265-10.036,22.78,22.78,0,0,0-2.1-21.632,22.879,22.879,0,0,0-10.039-8.26,22.779,22.779,0,0,0-21.633,2.1A22.88,22.88,0,0,0-31.3-33.616a22.78,22.78,0,0,0,2.1,21.632A22.875,22.875,0,0,0-19.167-3.719,22.66,22.66,0,0,0-10.285-1.927Z"/>
                    <path fill="#9b8da7" d="M-10.285-46.419a21.579,21.579,0,0,1,12.118,3.7A21.746,21.746,0,0,1,9.688-33.18a21.653,21.653,0,0,1-2,20.562A21.746,21.746,0,0,1-1.851-4.763a21.653,21.653,0,0,1-20.562-2A21.737,21.737,0,0,1-30.267-16.3a21.653,21.653,0,0,1,2-20.562,21.747,21.747,0,0,1,9.542-7.86A21.538,21.538,0,0,1-10.285-46.419Zm0,42.74a20.951,20.951,0,0,0,11.773-3.6,21.119,21.119,0,0,0,7.63-9.265,21.028,21.028,0,0,0-1.941-19.97,21.119,21.119,0,0,0-9.265-7.63A21.028,21.028,0,0,0-22.058-42.2a21.124,21.124,0,0,0-7.63,9.265,21.028,21.028,0,0,0,1.941,19.97,21.119,21.119,0,0,0,9.265,7.63A20.907,20.907,0,0,0-10.285-3.679Z"/>
                    <path fill="#9b8da7" d="M-10.285-44.666a19.841,19.841,0,0,1,11.143,3.4A19.988,19.988,0,0,1,8.078-32.5,19.9,19.9,0,0,1,6.24-13.6a19.988,19.988,0,0,1-8.768,7.22,19.9,19.9,0,0,1-18.9-1.838,19.983,19.983,0,0,1-7.22-8.768,19.9,19.9,0,0,1,1.834-18.9,19.993,19.993,0,0,1,8.772-7.22A19.816,19.816,0,0,1-10.285-44.666Zm0,39.234A19.2,19.2,0,0,0,.508-8.732,19.361,19.361,0,0,0,7.5-17.226a19.279,19.279,0,0,0-1.78-18.308,19.361,19.361,0,0,0-8.494-6.995,19.28,19.28,0,0,0-18.307,1.784,19.361,19.361,0,0,0-7,8.494,19.279,19.279,0,0,0,1.78,18.308A19.361,19.361,0,0,0-17.8-6.948,19.184,19.184,0,0,0-10.285-5.432Z"/>
                    <path fill="#9b8da7" d="M-10.286-42.914a18.094,18.094,0,0,1,10.163,3.1,18.232,18.232,0,0,1,6.585,8A18.154,18.154,0,0,1,4.786-14.576a18.232,18.232,0,0,1-8,6.585A18.152,18.152,0,0,1-20.448-9.666a18.221,18.221,0,0,1-6.585-8A18.154,18.154,0,0,1-25.362-34.9a18.228,18.228,0,0,1,8-6.585A18.083,18.083,0,0,1-10.286-42.914Zm0,35.728a17.466,17.466,0,0,0,9.813-3,17.6,17.6,0,0,0,6.36-7.723A17.527,17.527,0,0,0,4.269-34.551a17.6,17.6,0,0,0-7.723-6.363A17.531,17.531,0,0,0-20.1-39.292a17.6,17.6,0,0,0-6.363,7.722A17.527,17.527,0,0,0-24.84-14.924a17.6,17.6,0,0,0,7.723,6.36A17.44,17.44,0,0,0-10.286-7.186Z"/>
                    <path fill="#9b8da7" d="M-10.285-41.161a16.418,16.418,0,0,1,16.431,16.4A16.417,16.417,0,0,1,1.328-13.124,16.424,16.424,0,0,1-21.9-13.136a16.424,16.424,0,0,1,.012-23.227,16.426,16.426,0,0,1,5.209-3.507A16.324,16.324,0,0,1-10.285-41.161Zm0,32.223A15.8,15.8,0,0,0,5.521-24.732,15.8,15.8,0,0,0-4.136-39.295a15.8,15.8,0,0,0-20.708,8.408,15.8,15.8,0,0,0,8.408,20.708A15.679,15.679,0,0,0-10.285-8.938Z"/>
                    <path fill="#9b8da7" d="M-10.285-39.408A14.666,14.666,0,0,1,4.391-24.752a14.661,14.661,0,0,1-4.3,10.388,14.671,14.671,0,0,1-20.748-.01,14.671,14.671,0,0,1,.01-20.748A14.657,14.657,0,0,1-16-38.255,14.589,14.589,0,0,1-10.285-39.408Zm0,28.717A14.049,14.049,0,0,0,3.756-24.75,14.049,14.049,0,0,0-4.818-37.68,14.052,14.052,0,0,0-23.23-30.206,14.05,14.05,0,0,0-15.756-11.8h0A13.954,13.954,0,0,0-10.285-10.691Z"/>
                    <path fill="#9b8da7" d="M-10.285-37.655A12.914,12.914,0,0,1,2.638-24.75,12.913,12.913,0,0,1-1.151-15.6a12.918,12.918,0,0,1-18.269-.011,12.917,12.917,0,0,1,.011-18.268,12.911,12.911,0,0,1,4.1-2.758A12.848,12.848,0,0,1-10.285-37.655Zm0,25.212A12.3,12.3,0,0,0,1.991-24.767,12.3,12.3,0,0,0-5.5-36.065a12.3,12.3,0,0,0-15.961,6.917A12.3,12.3,0,0,0-15.073-13.41,12.211,12.211,0,0,0-10.285-12.443Z"/>
                    <path fill="#9b8da7" d="M-10.285-35.9A11.163,11.163,0,0,1,.885-24.747,11.163,11.163,0,0,1-2.39-16.842a11.166,11.166,0,0,1-15.79-.009,11.166,11.166,0,0,1,.01-15.79,11.174,11.174,0,0,1,3.539-2.383A11.11,11.11,0,0,1-10.285-35.9Zm0,21.706A10.544,10.544,0,0,0,.252-24.747a10.545,10.545,0,0,0-6.434-9.7A10.544,10.544,0,0,0-20-28.84a10.544,10.544,0,0,0,5.61,13.816A10.478,10.478,0,0,0-10.285-14.2Z"/>
                    <path fill="#9b8da7" d="M-10.286-34.15a9.41,9.41,0,0,1,9.418,9.4A9.41,9.41,0,0,1-3.63-18.082a9.413,9.413,0,0,1-13.311-.01A9.413,9.413,0,0,1-16.93-31.4a9.42,9.42,0,0,1,2.981-2.007A9.37,9.37,0,0,1-10.286-34.15Zm0,18.2A8.789,8.789,0,0,0-1.5-24.744a8.791,8.791,0,0,0-5.364-8.091,8.788,8.788,0,0,0-11.516,4.674A8.788,8.788,0,0,0-16.5-18.524,8.759,8.759,0,0,0-10.286-15.95Z"/>
                    <path fill="#9b8da7" d="M-10.285-32.4a7.657,7.657,0,0,1,7.663,7.651,7.657,7.657,0,0,1-2.247,5.425A7.661,7.661,0,0,1-15.7-19.333a7.66,7.66,0,0,1,.013-10.833A7.644,7.644,0,0,1-13.267-31.8,7.633,7.633,0,0,1-10.285-32.4Zm0,14.695a7.033,7.033,0,0,0,7.039-7.027A7.036,7.036,0,0,0-5.31-29.712a7.036,7.036,0,0,0-9.949.01,7.035,7.035,0,0,0,.01,9.949,7.043,7.043,0,0,0,2.225,1.5A6.983,6.983,0,0,0-10.285-17.7Z"/>
                    <path fill="#9b8da7" d="M-10.285-30.644A5.9,5.9,0,0,1-4.37-24.759a5.9,5.9,0,0,1-1.739,4.2,5.907,5.907,0,0,1-8.354,0,5.908,5.908,0,0,1,0-8.354,5.918,5.918,0,0,1,1.875-1.262A5.864,5.864,0,0,1-10.285-30.644Zm0,11.189A5.282,5.282,0,0,0-5-24.736,5.286,5.286,0,0,0-6.55-28.473a5.283,5.283,0,0,0-7.471-.066,5.283,5.283,0,0,0-.066,7.471l.066.066A5.249,5.249,0,0,0-10.285-19.455Z"/>
                    <path fill="#9b8da7" d="M-10.285-28.891a4.154,4.154,0,0,1,4.154,4.154h0a4.154,4.154,0,0,1-4.154,4.154h0a4.154,4.154,0,0,1-4.154-4.154h0a4.154,4.154,0,0,1,4.154-4.154Zm0,7.684a3.529,3.529,0,0,0,3.53-3.53h0a3.53,3.53,0,0,0-3.53-3.53h0a3.53,3.53,0,0,0-3.53,3.53h0a3.529,3.529,0,0,0,3.53,3.53Z"/>
                </g>
            </g>
        </g>
    </g>
</svg>