<svg xmlns="http://www.w3.org/2000/svg" width="14" height="16" viewBox="0 0 14 16"><defs><style>.a{fill:#fff;}</style></defs><g transform="translate(-4.997 -2.117)"><path class="a" d="M6.627,15.9.363,12.263A.728.728,0,0,1,0,11.636V4.363a.728.728,0,0,1,.363-.627L6.627.1a.739.739,0,0,1,.747,0l6.263,3.635A.728.728,0,0,1,14,4.363v7.273a.728.728,0,0,1-.363.627L7.373,15.9a.742.742,0,0,1-.747,0ZM1.474,4.78v6.44L7,14.429l5.526-3.209V4.78L7,1.571Zm4.789,6.493V8.405L3.662,6.8a.722.722,0,0,1-.234-1,.742.742,0,0,1,1.015-.23L7,7.143,9.555,5.565A.742.742,0,0,1,10.57,5.8a.721.721,0,0,1-.234,1l-2.6,1.6v2.871a.737.737,0,0,1-1.473,0Z" transform="translate(4.997 2.117)"/></g></svg>