<svg xmlns="http://www.w3.org/2000/svg" width="20" height="20" viewBox="0 0 20 20">

    <g transform="translate(8402 -3792)">
        <g opacity="0" transform="translate(-8402 3792)">
            <rect stroke="none" width="20" height="20"/>
            <rect class="d" x="0.5" y="0.5" width="19" height="19"/>
        </g>
        <path fill="currentColor" d="M125.011,111.677a5.474,5.474,0,0,1-4.97-1.474,5.41,5.41,0,0,1-.41-7.237v1.01a.546.546,0,1,0,1.092,0v-2.185a.458.458,0,0,0-.164-.382.539.539,0,0,0-.383-.164h-2.184a.546.546,0,1,0,0,1.092h.764a6.486,6.486,0,0,0,.491,8.63,6.563,6.563,0,0,0,6.008,1.775.721.721,0,0,0,.246-.136.528.528,0,0,0,0-.765A.441.441,0,0,0,125.011,111.677Zm4.806-1.338h-.737a6.565,6.565,0,0,0-6.145-10.513.48.48,0,0,0-.355.164.528.528,0,0,0,0,.764.52.52,0,0,0,.519.136,5.436,5.436,0,0,1,5.052,8.766v-1.01a.546.546,0,1,0-1.092,0v2.185a.459.459,0,0,0,.164.382.54.54,0,0,0,.383.164h2.184a.548.548,0,0,0,.546-.546A.481.481,0,0,0,129.817,110.339Z" transform="translate(-8554.941 3814.281) rotate(-45)"/>
    </g>
</svg>