<svg xmlns="http://www.w3.org/2000/svg" width="14" height="16" viewBox="0 0 14 16"><defs><style>.a{fill:#fff;}</style></defs><path class="a" d="M11.79,16H.737a.727.727,0,1,1,0-1.455h.875A15.476,15.476,0,0,1,3.526,9.422,5.515,5.515,0,0,1,4.83,8a5.514,5.514,0,0,1-1.3-1.422A15.461,15.461,0,0,1,1.612,1.454H.737A.732.732,0,0,1,0,.727.732.732,0,0,1,.737,0H13.263A.732.732,0,0,1,14,.727a.732.732,0,0,1-.737.727h-.875a15.476,15.476,0,0,1-1.914,5.123A5.51,5.51,0,0,1,9.17,8a5.505,5.505,0,0,1,1.3,1.422,15.458,15.458,0,0,1,1.915,5.122h.875a.727.727,0,1,1,0,1.455Zm-.912-1.455a13.769,13.769,0,0,0-1.64-4.329A2.719,2.719,0,0,0,7,8.727H7a2.713,2.713,0,0,0-2.235,1.487,13.78,13.78,0,0,0-1.64,4.331ZM7,7.273A2.713,2.713,0,0,0,9.238,5.786a13.788,13.788,0,0,0,1.639-4.331H3.122a13.768,13.768,0,0,0,1.64,4.33A2.719,2.719,0,0,0,7,7.273ZM5.158,13.818a.727.727,0,1,1,0-1.454H8.842a.727.727,0,1,1,0,1.454Zm.737-8.363A.727.727,0,1,1,5.895,4h2.21a.727.727,0,1,1,0,1.455Z"/></svg>