<svg xmlns="http://www.w3.org/2000/svg" width="32" height="32" viewBox="0 0 32 32">
    <defs>
        <style>.b{fill:#707070;}</style>
    </defs>
    <path class="b" d="M16.616,18.609,9.5,11.548,2.384,18.609a1.311,1.311,0,0,1-1.869,0l-.1-.095a1.462,1.462,0,0,1,0-2.05L7.436,9.5.421,2.538a1.462,1.462,0,0,1,0-2.05l.1-.1a1.312,1.312,0,0,1,1.869,0L9.5,7.452,16.616.39a1.312,1.312,0,0,1,1.869,0l.1.1a1.46,1.46,0,0,1,0,2.05L11.563,9.5l7.015,6.962a1.46,1.46,0,0,1,0,2.05l-.1.095a1.311,1.311,0,0,1-1.869,0Z" transform="translate(7 7)"/>
</svg>