<svg xmlns="http://www.w3.org/2000/svg" width="20" height="20" viewBox="0 0 20 20"><path d="M2.732,13.535A7.354,7.354,0,0,1,.078,10.594.734.734,0,0,1,1.391,9.94,5.868,5.868,0,0,0,6.648,13.2a5.731,5.731,0,0,0,3.1-.9A5.867,5.867,0,0,0,11.184,11H10.028a.734.734,0,0,1,0-1.467h2.486a.73.73,0,0,1,.326.077h0l.014.007.005,0,.007,0a.733.733,0,0,1,.381.658V13.2a.734.734,0,1,1-1.467,0v-.664a7.215,7.215,0,0,1-5.132,2.131A7.311,7.311,0,0,1,2.732,13.535ZM5.591,9.954,4.034,8.4a1.47,1.47,0,0,1,0-2.076L5.591,4.767a1.468,1.468,0,0,1,2.074,0L9.22,6.322a1.469,1.469,0,0,1,0,2.076L7.665,9.954a1.47,1.47,0,0,1-2.074,0Zm-.52-2.594v0L6.629,8.916,8.184,7.359,6.629,5.8Zm6.786-2.633A5.862,5.862,0,0,0,6.6,1.467a5.739,5.739,0,0,0-3.1.9,5.852,5.852,0,0,0-1.432,1.3H3.22a.734.734,0,1,1,0,1.467H.735a.6.6,0,0,1-.094-.007h0l-.015,0-.008,0H.608A.733.733,0,0,1,.3,4.988h0l-.007,0A.735.735,0,0,1,0,4.363v-2.9a.734.734,0,0,1,1.467,0v.662A7.213,7.213,0,0,1,6.6,0,7.335,7.335,0,0,1,13.17,4.073a.733.733,0,0,1-.329.984.745.745,0,0,1-.327.077A.734.734,0,0,1,11.856,4.727Z" transform="translate(5.999 4.005)"/></svg>
