<svg xmlns="http://www.w3.org/2000/svg" width="17.923" height="17.923" viewBox="0 0 17.923 17.923"><defs><style>.a{fill:#fff;}</style></defs><g transform="translate(-4 -4)"><path class="a" d="M19.683,18.339H6.24A2.243,2.243,0,0,1,4,16.1V6.24A2.243,2.243,0,0,1,6.24,4h5.377a.9.9,0,0,1,0,1.792H6.24a.449.449,0,0,0-.448.448V16.1a.449.449,0,0,0,.448.448H19.683a.449.449,0,0,0,.448-.448V11.617a.9.9,0,1,1,1.792,0V16.1A2.243,2.243,0,0,1,19.683,18.339Z"/><path class="a" d="M22.9,37.377a.9.9,0,0,1-.9-.9V32.9a.9.9,0,1,1,1.792,0v3.585A.9.9,0,0,1,22.9,37.377Z" transform="translate(-9.934 -15.454)"/><path class="a" d="M28.689,9.377a.893.893,0,0,1-.634-.262L26.262,7.322a.9.9,0,0,1,0-1.267l1.792-1.792A.9.9,0,0,1,29.322,5.53L28.164,6.689l1.159,1.159a.9.9,0,0,1-.634,1.53Z" transform="translate(-12.142 0)"/><path class="a" d="M36.9,9.377a.9.9,0,0,1-.634-1.53l1.159-1.159L36.262,5.53A.9.9,0,0,1,37.53,4.262l1.792,1.792a.9.9,0,0,1,0,1.267L37.53,9.115A.893.893,0,0,1,36.9,9.377Z" transform="translate(-17.661 0)"/><path class="a" d="M21.858,41.792H12.9A.9.9,0,1,1,12.9,40h8.962a.9.9,0,1,1,0,1.792Z" transform="translate(-4.415 -19.869)"/></g></svg>