<svg xmlns="http://www.w3.org/2000/svg" width="24" height="24" viewBox="0 0 24 24"><defs><style>.a{fill:rgba(255,255,255,0);}.b,.c{stroke:#000;}.b{stroke-linecap:round;}.c,.e{fill:none;}.c{stroke-width:1.5px;}.d{stroke:none;}</style></defs><g transform="translate(-333 -59)"><rect class="a" width="24" height="24" transform="translate(333 59)"/><g transform="translate(335.121 61.17)"><path class="b" d="M9.192.92a.919.919,0,1,1,.919.919A.919.919,0,0,1,9.192.92ZM4.6.92a.919.919,0,1,1,.919.919A.919.919,0,0,1,4.6.92ZM0,.92a.919.919,0,1,1,.919.919A.919.919,0,0,1,0,.92Z" transform="translate(4.348 8.941)"/><g class="c" transform="translate(-0.121 -0.17)"><circle class="d" cx="10" cy="10" r="10"/><circle class="e" cx="10" cy="10" r="9.25"/></g></g></g></svg>