<svg xmlns="http://www.w3.org/2000/svg" width="13.999" height="13.998" viewBox="0 0 13.999 13.998"><defs><style>.a{fill:#e19f3b;}</style></defs><path class="a" d="M395-12286a7.006,7.006,0,0,1-7-7,7.007,7.007,0,0,1,7-7,7.008,7.008,0,0,1,7,7A7.008,7.008,0,0,1,395-12286Zm-3.516-4.618a.385.385,0,0,0-.38.39.385.385,0,0,0,.38.388h7.063a.385.385,0,0,0,.38-.388.385.385,0,0,0-.38-.39h-1.207v-2.728a2.337,2.337,0,0,0-.685-1.655,2.322,2.322,0,0,0-1.655-.686,2.318,2.318,0,0,0-1.651.686,2.337,2.337,0,0,0-.685,1.655v2.728Zm7.068-4.036a.387.387,0,0,0-.067.006l-.577.1a.385.385,0,0,0-.25.16.383.383,0,0,0-.065.29.39.39,0,0,0,.383.325.492.492,0,0,0,.068-.007l.577-.1a.382.382,0,0,0,.25-.158.389.389,0,0,0,.065-.292A.389.389,0,0,0,398.551-12294.656Zm-7.1,0a.388.388,0,0,0-.383.323.389.389,0,0,0,.065.292.382.382,0,0,0,.25.158l.577.1a.494.494,0,0,0,.068.007.39.39,0,0,0,.383-.325.381.381,0,0,0-.065-.288.383.383,0,0,0-.25-.162l-.577-.1A.4.4,0,0,0,391.449-12294.656Zm5.869-2.137a.385.385,0,0,0-.3.141l-.377.446a.394.394,0,0,0,.046.552.409.409,0,0,0,.25.089.4.4,0,0,0,.3-.138l.377-.448a.391.391,0,0,0,.09-.286.386.386,0,0,0-.139-.263A.382.382,0,0,0,397.318-12296.793Zm-4.635,0a.382.382,0,0,0-.249.093.386.386,0,0,0-.139.263.391.391,0,0,0,.09.286l.377.448a.4.4,0,0,0,.3.138.409.409,0,0,0,.25-.089.394.394,0,0,0,.046-.552l-.377-.446A.385.385,0,0,0,392.683-12296.793Zm2.319-.844a.391.391,0,0,0-.392.39v.587a.391.391,0,0,0,.392.388.389.389,0,0,0,.389-.388v-.587A.39.39,0,0,0,395-12297.637Zm1.556,7.017H393.44v-2.728a1.56,1.56,0,0,1,1.559-1.56,1.56,1.56,0,0,1,1.559,1.56v2.728Z" transform="translate(-388.001 12300)"/></svg>