<svg xmlns="http://www.w3.org/2000/svg" width="16" height="16" viewBox="0 0 16 16"><defs><style>.a{fill:rgba(90,92,96,0);}.b{fill:#5a5c60;}</style></defs><rect class="a" width="16" height="16"/><path class="b" d="M18.4,21.937a3.54,3.54,0,1,1,3.54-3.54A3.525,3.525,0,0,1,18.4,21.937Zm0-5.9a2.36,2.36,0,1,0,2.36,2.36A2.33,2.33,0,0,0,18.4,16.037ZM8.17,21.937a1.763,1.763,0,0,1-1.77-1.77v-3.54a1.763,1.763,0,0,1,1.77-1.77h3.54a1.763,1.763,0,0,1,1.77,1.77v3.54a1.763,1.763,0,0,1-1.77,1.77H8.17Zm0-5.9a.635.635,0,0,0-.59.59v3.54a.635.635,0,0,0,.59.59h3.54a.635.635,0,0,0,.59-.59v-3.54a.635.635,0,0,0-.59-.59H8.17Zm8.457-2.557a1.763,1.763,0,0,1-1.77-1.77V8.17a1.763,1.763,0,0,1,1.77-1.77h3.54a1.763,1.763,0,0,1,1.77,1.77v3.54a1.763,1.763,0,0,1-1.77,1.77Zm0-5.9a.635.635,0,0,0-.59.59v3.54a.635.635,0,0,0,.59.59h3.54a.635.635,0,0,0,.59-.59V8.17a.635.635,0,0,0-.59-.59h-3.54ZM8.17,13.48A1.763,1.763,0,0,1,6.4,11.71V8.17A1.763,1.763,0,0,1,8.17,6.4h3.54a1.763,1.763,0,0,1,1.77,1.77v3.54a1.763,1.763,0,0,1-1.77,1.77H8.17Zm0-5.9a.635.635,0,0,0-.59.59v3.54a.635.635,0,0,0,.59.59h3.54a.635.635,0,0,0,.59-.59V8.17a.635.635,0,0,0-.59-.59H8.17Z" transform="translate(-6.169 -6.169)"/></svg>