<svg xmlns="http://www.w3.org/2000/svg" width="16.197" height="15.275" viewBox="0 0 16.197 15.275"><defs><style>.a,.b{fill:#fff;}.a{fill-rule:evenodd;}</style></defs><g transform="translate(0 0)"><path class="a" d="M34.472,30.681a1.472,1.472,0,0,0,1.472-1.472q0-.813-1.472-2.209Q33,28.4,33,29.209A1.472,1.472,0,0,0,34.472,30.681Z" transform="translate(-21.589 -18.351)"/><path class="b" d="M20.891,6.278a.734.734,0,0,1-.521-.216l-1.3-1.3A.736.736,0,0,1,20.11,3.72l1.3,1.3a.736.736,0,0,1-.521,1.257Z" transform="translate(-12.65 -3.505)"/><path class="b" d="M12.588,6.333a.736.736,0,0,1,.521.216l4.165,4.165a.736.736,0,0,1,0,1.041l-5.726,5.726a.736.736,0,0,1-1.041,0L6.341,13.316a.736.736,0,0,1,0-1.041l5.726-5.726A.736.736,0,0,1,12.588,6.333Zm3.123,4.9L12.588,8.11,7.9,12.8l3.123,3.123Z" transform="translate(-4.607 -5.292)"/><path class="b" d="M16.979,21.6a.735.735,0,0,1-.23-.037l-6.243-2.053a.736.736,0,1,1,.46-1.4l6.243,2.053a.736.736,0,0,1-.23,1.436Z" transform="translate(-7.055 -12.71)"/><path class="b" d="M17.46,42.472H2.736a.736.736,0,0,1,0-1.472H17.46a.736.736,0,0,1,0,1.472Z" transform="translate(-2 -27.198)"/></g></svg>