<svg xmlns="http://www.w3.org/2000/svg" width="20" height="20" viewBox="0 0 20 20"><defs><style>.a{fill:#fff;stroke:#707070;opacity:0;}.b{fill:#333;}.c{stroke:none;}.d{fill:none;}</style></defs><g transform="translate(-329 -214)"><g class="a" transform="translate(329 214)"><rect class="c" width="20" height="20"/><rect class="d" x="0.5" y="0.5" width="19" height="19"/></g><g transform="translate(281.402 115.197)"><path class="b" d="M11341.6-2548a2.992,2.992,0,0,1-2.125-.875,3.007,3.007,0,0,1,0-4.248l2.721-2.715a2.959,2.959,0,0,1,2.119-.88,2.975,2.975,0,0,1,2.123.88.6.6,0,0,1,.185.442.6.6,0,0,1-.185.439.612.612,0,0,1-.442.182.592.592,0,0,1-.436-.182,1.76,1.76,0,0,0-1.245-.513,1.74,1.74,0,0,0-1.239.513l-2.721,2.721a1.731,1.731,0,0,0-.51,1.236,1.727,1.727,0,0,0,.51,1.239,1.739,1.739,0,0,0,1.245.519,1.729,1.729,0,0,0,1.239-.519l2.293-2.288a.612.612,0,0,1,.442-.182.6.6,0,0,1,.438.182.624.624,0,0,1,0,.88l-2.291,2.293a2.988,2.988,0,0,1-2.119.875Zm4.484-4.484a2.986,2.986,0,0,1-2.125-.875.642.642,0,0,1-.183-.441.649.649,0,0,1,.183-.445.645.645,0,0,1,.441-.182.645.645,0,0,1,.444.182,1.716,1.716,0,0,0,1.239.519,1.716,1.716,0,0,0,1.236-.519l2.721-2.715a1.758,1.758,0,0,0,0-2.481,1.742,1.742,0,0,0-1.236-.513,1.748,1.748,0,0,0-1.245.513l-2.3,2.293a.592.592,0,0,1-.437.182.609.609,0,0,1-.441-.182.619.619,0,0,1,0-.88l2.294-2.293a2.968,2.968,0,0,1,2.125-.88,2.959,2.959,0,0,1,2.119.88,2.974,2.974,0,0,1,.881,2.122,2.963,2.963,0,0,1-.881,2.12l-2.715,2.721a2.989,2.989,0,0,1-2.119.875Z" transform="translate(-11287.6 2663.398)"/></g></g></svg>