<svg xmlns="http://www.w3.org/2000/svg" width="13.516" height="13.516" viewBox="0 0 13.516 13.516">

    <g transform="translate(0.5 0.5)">
        <rect opacity="0" width="12.418" height="12.418" transform="translate(0.196 0.354)"/>
        <path fill="currentColor" d="M1.5,12.516a1.5,1.5,0,0,1-1.5-1.5V6.008a1.5,1.5,0,0,1,1.5-1.5H4.756v1H1.5a.5.5,0,0,0-.5.5v5.006a.5.5,0,0,0,.5.5h9.512a.5.5,0,0,0,.5-.5V6.008a.5.5,0,0,0-.5-.5H7.76v-1h3.254a1.5,1.5,0,0,1,1.5,1.5v5.006a1.5,1.5,0,0,1-1.5,1.5Zm2.01-5.5.681-.681L5.758,7.9V0h1V7.9L8.326,6.336,9,7.016,6.258,9.763Z" transform="translate(0 0)"/>
    </g>
</svg>