<svg xmlns="http://www.w3.org/2000/svg" xmlns:xlink="http://www.w3.org/1999/xlink" width="28" height="28" viewBox="0 0 28 28"><defs><style>.a{fill:#fff;}.b{clip-path:url(#a);}.c{clip-path:url(#b);}.d{fill:#363636;opacity:0.699;}</style><clipPath id="a"><circle class="a" cx="14" cy="14" r="14" transform="translate(1144 9172)"/></clipPath><clipPath id="b"><rect width="99" height="58" rx="10"/></clipPath></defs><g class="b" transform="translate(-1144 -9172)"><g transform="translate(1081.412 9164)"><g transform="translate(19 2)"><rect width="99" height="58" transform="translate(-0.412)"/><g class="c" transform="translate(-0.412)"><path class="d" d="M5841.3,3632.356c-22.785,23.929-69.819,13.458-104.856-23.35s-45-86.225-22.226-110.156c22.7-23.844,69.468-13.548,104.461,22.919q.2.21.4.421C5854.123,3559,5864.086,3608.418,5841.3,3632.356ZM5714.6,3499.239c-22.633,23.773-12.7,72.886,22.126,109.476s81.576,47.022,104.205,23.246c12.661-13.3,15.133-34.531,8.754-57.064,5.747,21.54,3.164,41.732-8.976,54.488-22.17,23.294-67.947,13.1-102.037-22.714s-43.79-83.907-21.621-107.194c12.147-12.764,31.383-15.474,51.9-9.423C5747.49,3483.339,5727.267,3485.93,5714.6,3499.239Zm108.725,44.054c-4.367,4.592-13.381,2.6-20.089-4.451s-8.607-16.514-4.236-21.1c2.287-2.406,5.85-3,9.688-2.013-4.781-1.651-9.332-1.171-12.141,1.78-4.826,5.071-2.7,15.558,4.746,23.378s17.427,10.057,22.254,4.987c2.806-2.951,3.264-7.728,1.7-12.746C5826.18,3537.153,5825.611,3540.892,5823.323,3543.293Zm-.6-2.966c-3.758,3.945-11.5,2.23-17.262-3.819s-7.4-14.2-3.643-18.14c1.953-2.051,4.98-2.573,8.247-1.754-4.21-1.483-8.227-1.08-10.7,1.515-4.214,4.429-2.355,13.587,4.145,20.416s15.225,8.789,19.438,4.358c2.474-2.6,2.855-6.828,1.436-11.26C5825.173,3535.083,5824.678,3538.273,5822.722,3540.327Zm-.6-2.966c-3.145,3.308-9.619,1.867-14.437-3.2s-6.187-11.866-3.042-15.17c.049-.052.1-.1.149-.151l.052-.049.1-.095.065-.056c.03-.027.062-.054.093-.081l.073-.058.09-.073.078-.057c.03-.022.06-.045.09-.066l.083-.057.089-.06.087-.055.089-.055c.029-.018.061-.035.092-.052l.088-.051c.031-.018.064-.034.1-.051l.088-.046.1-.048.087-.042.105-.045.086-.038.109-.043.085-.034.114-.04.085-.03.117-.037.084-.026.123-.034.082-.022.127-.031.081-.019.132-.028.079-.016.137-.024.077-.013.143-.021.074-.01.146-.017.072-.008.152-.013.069-.006.157-.008.067,0,.162,0h.293l.173,0,.058,0,.178.01.055,0c.062,0,.122.009.183.015l.053,0,.188.02.049.005.192.025.045.006.2.031.042.007.2.036.038.007.207.042.035.007.212.048.031.007.022.006c-3.646-1.32-7.134-.993-9.268,1.25-3.6,3.781-2.007,11.608,3.552,17.452s13.009,7.51,16.606,3.727c2.131-2.239,2.447-5.89,1.2-9.707C5824.163,3533.057,5823.735,3535.67,5822.124,3537.361Zm-.6-2.962c-2.532,2.656-7.741,1.5-11.618-2.568s-4.973-9.548-2.444-12.2a5.484,5.484,0,0,1,5.359-1.231h0a11.959,11.959,0,0,0-1.143-.364h0c-.094-.024-.186-.048-.278-.069h-.006a9.907,9.907,0,0,0-1.1-.195l-.018,0q-.125-.015-.249-.025l-.023,0c-.267-.022-.53-.033-.789-.03h0c-.08,0-.161,0-.24.006l-.04,0-.209.013-.044,0c-.072.006-.145.013-.216.021l-.025,0c-.163.019-.324.044-.482.074l-.032.007c-.065.013-.13.027-.194.041l-.057.013-.17.043-.06.017c-.059.016-.116.034-.174.052l-.046.014c-.146.047-.289.1-.429.157l-.051.022c-.051.022-.1.044-.152.068l-.065.031-.138.068-.065.034c-.048.025-.093.051-.14.077l-.055.031q-.19.112-.372.241l-.054.04c-.042.03-.083.062-.124.093l-.062.05c-.038.03-.075.061-.112.092l-.062.053c-.038.034-.076.068-.113.1l-.052.049c-.054.052-.107.1-.159.159-2.987,3.139-1.666,9.635,2.95,14.488s10.8,6.234,13.787,3.1c.051-.055.1-.11.151-.167l.046-.055c.033-.039.066-.079.1-.119l.051-.065c.029-.039.06-.078.088-.117l.048-.066c.03-.042.06-.086.088-.13l.038-.057q.123-.19.229-.39l.03-.058c.024-.048.05-.1.073-.146.012-.023.021-.046.033-.069l.064-.144.029-.069q.034-.08.064-.161c.007-.018.015-.035.021-.053.055-.147.105-.3.149-.449,0-.016.009-.033.014-.049q.026-.091.05-.183c0-.021.011-.042.016-.063l.041-.178c0-.02.009-.04.013-.06.014-.067.026-.135.039-.2l.006-.036c.029-.166.053-.334.071-.506a.235.235,0,0,1,0-.026c.008-.075.015-.151.021-.228l0-.046c0-.073.009-.146.013-.219,0-.014,0-.028,0-.042,0-.083.006-.167.007-.252v-.007c0-.271-.007-.548-.028-.828l0-.025c-.006-.086-.015-.173-.023-.26a.136.136,0,0,0,0-.02,11.25,11.25,0,0,0-.185-1.156.019.019,0,0,0,0-.006c-.021-.1-.042-.194-.065-.291v0q-.142-.595-.346-1.2h0A6.193,6.193,0,0,1,5821.526,3534.4Zm-.6-2.97c-1.915,2.016-5.861,1.143-8.791-1.936s-3.762-7.224-1.843-9.238a4.093,4.093,0,0,1,3.911-.965c-2.494-.981-4.908-.8-6.367.726-2.375,2.5-1.317,7.663,2.353,11.522s8.592,4.966,10.967,2.471c1.461-1.534,1.627-4.075.688-6.7A4.621,4.621,0,0,1,5820.925,3531.429Zm-.6-2.962c-1.3,1.368-3.983.781-5.972-1.3s-2.547-4.908-1.245-6.278a2.723,2.723,0,0,1,2.472-.694c-1.922-.817-3.8-.719-4.92.457-1.762,1.849-.977,5.687,1.751,8.552s6.382,3.691,8.141,1.839c1.121-1.175,1.214-3.153.435-5.173A3.06,3.06,0,0,1,5820.327,3528.467Zm-.6-2.97c-.693.725-2.1.422-3.148-.676s-1.337-2.583-.647-3.31a1.36,1.36,0,0,1,1.055-.394c-1.355-.676-2.721-.668-3.507.159-1.148,1.208-.632,3.715,1.154,5.59s4.171,2.419,5.32,1.211c.786-.829.794-2.263.149-3.687A1.5,1.5,0,0,1,5819.729,3525.5Zm4.188,20.762c-4.983,5.236-15.259,2.958-22.908-5.083s-9.818-18.829-4.835-24.065c2.637-2.769,6.756-3.436,11.183-2.261-5.37-1.842-10.479-1.3-13.634,2.018-5.443,5.717-3.045,17.538,5.344,26.352s19.641,11.333,25.084,5.614c3.154-3.316,3.675-8.685,1.919-14.328C5827.189,3539.16,5826.555,3543.489,5823.917,3546.26Zm.605,2.966c-5.6,5.88-17.143,3.316-25.735-5.711s-11.033-21.156-5.437-27.037c2.964-3.114,7.6-3.859,12.579-2.53-5.922-1.992-11.542-1.364-15.026,2.3-6.057,6.36-3.391,19.507,5.941,29.31s21.848,12.6,27.9,6.246c3.493-3.672,4.086-9.6,2.172-15.84C5828.2,3541.213,5827.5,3546.1,5824.522,3549.226Zm.594,2.962c-6.206,6.528-19.016,3.682-28.556-6.334s-12.238-23.477-6.032-30c3.311-3.477,8.5-4.293,14.06-2.782-6.511-2.179-12.687-1.481-16.516,2.542-6.669,7.007-3.731,21.483,6.547,32.284s24.054,13.872,30.723,6.866c3.825-4.016,4.492-10.493,2.428-17.324C5829.2,3543.278,5828.424,3548.717,5825.116,3552.188Zm.6,2.97c-6.823,7.164-20.9,4.04-31.374-6.97s-13.458-25.8-6.639-32.967c3.648-3.834,9.375-4.723,15.517-3.035-7.081-2.351-13.794-1.58-17.961,2.8-7.282,7.649-4.08,23.463,7.137,35.247s26.268,15.148,33.55,7.5c4.178-4.391,4.905-11.466,2.648-18.925C5830.213,3545.277,5829.371,3551.312,5825.714,3555.158Zm.6,2.962c-7.436,7.815-22.782,4.407-34.2-7.59s-14.665-28.123-7.229-35.935c4-4.2,10.271-5.155,17-3.283h0q-.533-.177-1.064-.331l-.036-.01-.308-.087-.058-.016-.29-.079-.061-.016-.3-.076-.047-.012-.337-.082h0q-.524-.125-1.044-.227l-.042-.008-.294-.056-.062-.011-.277-.049-.065-.011-.282-.046-.054-.008-.319-.047-.012,0q-.511-.071-1.014-.12l-.053-.005-.273-.024-.071-.006-.258-.019-.073,0-.263-.016-.062,0-.294-.013h-.027q-.331-.012-.658-.014h-.379l-.25,0-.08,0-.235.008-.082,0-.238.012-.074,0-.264.018-.043,0q-.315.024-.625.058l-.037,0-.263.031-.076.01-.223.031-.089.013-.211.033-.091.015-.213.037-.083.015-.233.045-.059.011q-.294.059-.585.129l-.055.013-.229.057-.085.023-.2.053-.095.027-.187.055-.1.029-.188.059-.089.029-.205.069-.068.023q-.274.1-.544.2l-.065.027-.2.08-.089.037-.175.074-.1.042-.166.075-.1.044-.166.08-.091.044-.18.091-.073.038c-.168.087-.335.178-.5.272l-.071.042-.172.1-.089.054-.152.094-.093.059c-.049.031-.1.063-.146.1l-.093.061-.147.1-.087.061-.157.112-.073.052c-.152.112-.3.227-.45.345l-.07.057-.149.123-.083.07-.135.115-.086.076c-.043.038-.087.077-.129.116s-.058.052-.085.078c-.044.04-.087.081-.13.121l-.08.076-.139.136-.066.066c-.067.068-.135.137-.2.207-7.9,8.3-4.424,25.437,7.738,38.211s28.474,16.424,36.369,8.129q.1-.1.2-.211l.063-.07c.043-.048.087-.1.129-.146l.073-.084.115-.136c.025-.029.05-.059.074-.089l.11-.136.072-.09c.037-.047.073-.094.109-.142.023-.029.045-.058.067-.087l.117-.158.054-.073c.057-.078.112-.156.167-.235l0,0q.081-.116.158-.233l.05-.077c.036-.055.072-.11.107-.165l.058-.092.1-.155.058-.1c.031-.051.061-.1.091-.155.019-.032.038-.064.056-.1.031-.054.061-.108.091-.162l.051-.092c.033-.061.066-.122.1-.184l.039-.073q.133-.259.258-.524c.013-.026.024-.052.036-.078.029-.062.059-.125.087-.188l.041-.094q.04-.088.076-.176c.015-.033.028-.066.042-.1.025-.058.049-.117.073-.176.013-.032.026-.066.039-.1.024-.062.049-.123.072-.185.011-.03.022-.06.034-.091l.079-.215c.007-.021.016-.042.022-.063q.1-.283.191-.573l.021-.071c.022-.072.044-.144.066-.217l.026-.091c.02-.067.038-.134.057-.2l.026-.1c.019-.067.036-.134.054-.2.008-.032.017-.063.024-.1.018-.071.035-.142.052-.213l.021-.083c.02-.084.038-.168.058-.253,0-.015.007-.03.01-.045q.066-.306.123-.618c0-.02.007-.04.011-.06.015-.082.029-.165.043-.248,0-.028.009-.056.014-.084.012-.076.024-.152.035-.228,0-.03.009-.06.014-.09l.032-.228.012-.087c.011-.081.02-.162.03-.244,0-.023,0-.047.008-.071.011-.1.021-.2.031-.3l0-.017c.021-.219.039-.438.055-.66l0-.043c.006-.094.012-.187.017-.281,0-.024,0-.048,0-.072,0-.085.009-.171.012-.257,0-.027,0-.053,0-.08,0-.085.006-.171.008-.256,0-.025,0-.05,0-.075,0-.092,0-.184,0-.276V3549q0-.51-.013-1.028c0-.009,0-.017,0-.026,0-.1-.008-.208-.013-.312l0-.06c0-.094-.01-.189-.016-.284,0-.023,0-.046,0-.069-.006-.094-.013-.188-.02-.283,0-.021,0-.041,0-.062-.007-.1-.016-.2-.024-.307l0-.036q-.047-.533-.116-1.072s0-.007,0-.011c-.015-.113-.029-.226-.046-.339l-.006-.048c-.016-.1-.03-.2-.046-.307l-.009-.058c-.016-.1-.031-.2-.049-.306,0-.017,0-.034-.008-.051-.019-.111-.037-.222-.058-.333l0-.02q-.1-.55-.218-1.105h0q-.038-.178-.079-.357c0-.014-.007-.027-.01-.041-.024-.107-.05-.215-.075-.322,0-.017-.009-.034-.013-.051q-.038-.16-.079-.321c0-.015-.007-.029-.011-.044q-.044-.175-.091-.351a.04.04,0,0,0,0-.01q-.149-.562-.318-1.127C5831.222,3547.324,5830.312,3553.923,5826.315,3558.12Zm.6,2.966c-8.048,8.455-24.654,4.769-37.021-8.226s-15.878-30.438-7.829-38.9c4.324-4.544,11.123-5.581,18.405-3.552-8.227-2.694-16.015-1.776-20.861,3.316-8.509,8.938-4.766,27.407,8.34,41.175s30.684,17.7,39.192,8.761c4.854-5.1,5.724-13.3,3.146-21.954C5832.229,3549.377,5831.245,3556.534,5826.912,3561.086Zm.6,2.97c-8.658,9.1-26.536,5.127-39.849-8.858s-17.085-32.763-8.427-41.859c4.668-4.9,12.01-6.014,19.871-3.807-8.8-2.871-17.135-1.881-22.319,3.568-9.121,9.582-5.114,29.381,8.938,44.142s32.895,18.968,42.012,9.385c5.183-5.445,6.129-14.185,3.4-23.425C5833.233,3551.453,5832.175,3559.156,5827.511,3564.056Zm.6,2.966c-9.274,9.739-28.416,5.482-42.667-9.49s-18.308-35.079-9.029-44.822c5.012-5.267,12.9-6.445,21.351-4.054-9.391-3.057-18.273-2-23.807,3.815-9.733,10.224-5.454,31.362,9.535,47.106s35.109,20.243,44.84,10.021c5.527-5.806,6.54-15.125,3.643-24.979C5834.243,3553.481,5833.119,3561.761,5828.111,3567.022Zm.6,2.962c-9.887,10.391-30.3,5.852-45.494-10.109s-19.514-37.407-9.627-47.795c5.346-5.617,13.764-6.873,22.771-4.321-9.948-3.216-19.352-2.079-25.214,4.079-10.352,10.87-5.8,33.33,10.128,50.072s37.32,21.515,47.667,10.649c5.87-6.169,6.947-16.068,3.87-26.535C5835.252,3555.5,5834.063,3564.361,5828.709,3569.984Zm.6,2.962c-10.5,11.039-32.178,6.218-48.317-10.738s-20.729-39.725-10.225-50.763c5.692-5.979,14.67-7.3,24.27-4.556-10.543-3.411-20.509-2.209-26.721,4.315-10.96,11.519-6.152,35.313,10.729,53.049s39.53,22.787,50.493,11.269c6.2-6.515,7.351-16.967,4.12-28.027C5836.258,3557.563,5835,3566.976,5829.311,3572.946Zm.6,2.966c-11.121,11.683-34.06,6.58-51.145-11.369s-21.939-42.046-10.822-53.729c6.013-6.315,15.489-7.72,25.626-4.838-11.081-3.545-21.546-2.255-28.077,4.606-11.573,12.156-6.49,37.279,11.331,56s41.736,24.063,53.309,11.9c6.536-6.864,7.76-17.865,4.379-29.515C5837.262,3559.631,5835.926,3569.592,5829.912,3575.912Zm.594,2.974c-11.727,12.315-35.933,6.938-53.96-12.005s-23.149-44.372-11.424-56.69c6.358-6.682,16.387-8.158,27.11-5.09-11.666-3.731-22.684-2.374-29.562,4.85-12.186,12.8-6.835,39.259,11.929,58.975s43.95,25.334,56.137,12.528c6.883-7.229,8.171-18.818,4.606-31.087C5838.274,3561.646,5836.873,3572.2,5830.506,3578.886Zm.6,2.962c-12.339,12.967-37.821,7.3-56.787-12.629s-24.36-46.694-12.021-59.659c6.7-7.04,17.271-8.587,28.569-5.343-12.242-3.908-23.8-2.479-31.021,5.106-12.8,13.446-7.18,41.231,12.53,61.933s46.157,26.614,58.955,13.168c7.224-7.589,8.582-19.742,4.854-32.612C5839.282,3563.69,5837.812,3574.8,5831.107,3581.848Zm.6,2.97c-12.956,13.611-39.694,7.655-59.607-13.264s-25.578-49.012-12.622-62.623c7.036-7.392,18.14-9.014,30.008-5.6-12.812-4.077-24.906-2.572-32.46,5.363-13.411,14.094-7.523,43.207,13.133,64.9s48.363,27.886,61.778,13.792c7.563-7.944,8.988-20.669,5.09-34.147C5840.29,3565.727,5838.751,3577.415,5831.705,3584.818Zm.6,2.962c-13.568,14.255-41.576,8.017-62.431-13.893s-26.789-51.331-13.22-65.585c7.382-7.757,19.041-9.448,31.5-5.846-13.4-4.265-26.046-2.693-33.946,5.609-14.027,14.738-7.872,45.177,13.722,67.867s50.574,29.153,64.6,14.416c7.908-8.308,9.4-21.611,5.326-35.7C5841.3,3567.748,5839.7,3580.015,5832.307,3587.78Zm.6,2.958c-14.181,14.9-43.456,8.391-65.253-14.508s-28-53.659-13.813-68.555c7.721-8.111,19.914-9.875,32.938-6.1-13.971-4.437-27.156-2.79-35.394,5.865-14.642,15.382-8.21,47.155,14.326,70.831s52.78,30.433,67.422,15.052c8.241-8.66,9.806-22.517,5.578-37.2C5842.3,3569.809,5840.626,3582.626,5832.9,3590.738Zm.6,2.97c-14.794,15.547-45.329,8.745-68.072-15.148s-29.213-55.973-14.419-71.515c8.051-8.459,20.764-10.3,34.346-6.375-14.526-4.59-28.229-2.864-36.8,6.137-15.254,16.025-8.554,49.13,14.925,73.8s54.991,31.7,70.245,15.679c8.585-9.016,10.218-23.446,5.82-38.737C5843.313,3571.846,5841.567,3585.235,5833.5,3593.708Zm.6,2.966c-15.407,16.187-47.215,9.111-70.9-15.776s-30.424-58.293-15.017-74.479c8.408-8.835,21.7-10.741,35.895-6.6-15.137-4.8-29.42-3.015-38.351,6.365-15.862,16.667-8.9,51.1,15.53,76.763s57.2,32.976,73.064,16.307c8.93-9.381,10.629-24.388,6.056-40.292C5844.321,3573.87,5842.51,3587.839,5834.1,3596.674Zm.6,2.97c-16.017,16.83-49.087,9.466-73.716-16.412s-31.642-60.615-15.621-77.446c8.748-9.189,22.576-11.167,37.338-6.861-15.705-4.972-30.521-3.112-39.786,6.621-16.48,17.315-9.247,53.079,16.12,79.729s59.415,34.252,75.9,16.939c9.254-9.722,11.03-25.264,6.317-41.743C5845.325,3575.96,5843.435,3590.465,5834.7,3599.645Zm.6,2.961c-16.633,17.475-50.972,9.836-76.542-17.031s-32.846-62.943-16.216-80.416c9.081-9.541,23.441-11.6,38.771-7.122-16.274-5.139-31.624-3.2-41.222,6.881-17.094,17.959-9.593,55.052,16.721,82.7s61.622,35.525,78.718,17.567c9.611-10.1,11.446-26.251,6.531-43.371C5846.339,3577.94,5844.39,3593.053,5835.3,3602.606Zm.6,2.967c-17.25,18.122-52.853,10.194-79.369-17.664s-34.063-65.261-16.813-83.384c9.433-9.911,24.363-12.028,40.3-7.351-16.875-5.341-32.794-3.341-42.748,7.116-17.706,18.6-9.937,57.025,17.319,85.663s63.836,36.792,81.542,18.195c9.94-10.443,11.85-27.143,6.786-44.849C5847.343,3580.014,5845.321,3595.675,5835.9,3605.573Zm.6,2.966c-17.863,18.762-54.733,10.552-82.193-18.3s-35.27-67.579-17.41-86.343c9.759-10.251,25.189-12.452,41.66-7.636-17.415-5.48-33.835-3.4-44.108,7.4-18.318,19.245-10.281,59,17.917,88.627s66.042,38.068,84.361,18.823c10.264-10.783,12.252-28.012,7.054-46.289C5848.344,3582.106,5846.244,3598.3,5836.5,3608.539Zm.6,2.962c-18.472,19.406-56.611,10.922-85.013-18.919s-36.484-69.9-18.008-89.311c10.1-10.61,26.077-12.882,43.129-7.885-18-5.661-34.966-3.508-45.585,7.649-18.932,19.887-10.622,60.977,18.519,91.587s68.253,39.344,87.181,19.458c10.624-11.161,12.673-29,7.277-47.909C5849.358,3584.092,5847.2,3600.886,5837.095,3611.5Zm.6,2.97c-19.089,20.05-58.484,11.276-87.836-19.552s-37.7-72.225-18.609-92.275c10.453-10.983,27-13.32,44.656-8.121-18.6-5.863-36.135-3.646-47.108,7.882-19.541,20.531-10.968,62.951,19.119,94.559s70.46,40.615,90,20.083c10.988-11.544,13.092-30,7.482-49.567C5850.375,3586.055,5848.16,3603.474,5837.692,3614.471Zm.6,2.966c-19.7,20.694-60.369,11.643-90.659-20.179s-38.905-74.552-19.208-95.246c10.787-11.331,27.859-13.745,46.072-8.387-19.156-6.023-37.218-3.728-48.523,8.148-20.157,21.177-11.312,64.927,19.717,97.525s72.674,41.89,92.831,20.71c11.315-11.888,13.493-30.887,7.737-51.035C5851.379,3588.13,5849.089,3606.092,5838.29,3617.437Zm.6,2.966c-20.311,21.338-62.25,12.005-93.482-20.807s-40.12-76.873-19.809-98.215c11.107-11.668,28.679-14.166,47.431-8.669-19.7-6.161-38.256-3.781-49.879,8.431-20.774,21.823-11.665,66.9,20.311,100.493s74.88,43.163,95.655,21.342c11.605-12.193,13.882-31.651,8.053-52.308C5852.369,3590.334,5849.98,3608.753,5838.892,3620.4Zm.6,2.966c-20.924,21.986-64.131,12.367-96.306-21.438s-41.33-79.194-20.4-101.18c11.468-12.046,29.627-14.6,49-8.888-20.312-6.379-39.461-3.941-51.451,8.655-21.384,22.465-12,68.871,20.916,103.453s77.087,44.435,98.47,21.97c11.97-12.572,14.3-32.647,8.268-53.95C5853.384,3592.3,5850.939,3611.339,5839.489,3623.369Zm.594,2.962c-21.537,22.626-66,12.729-99.121-22.066s-42.541-81.514-21.009-104.137c11.956-12.559,30.975-15.1,51.2-8.925-21.2-6.871-41.238-4.459-53.729,8.665-22.016,23.127-12.361,70.905,21.529,106.51s79.37,45.747,101.382,22.618c12.523-13.155,14.8-34.282,8.2-56.609C5854.468,3593.69,5852.068,3613.739,5840.083,3626.331ZM5818.726,3522.4c-.832-.819-1.9-1.044-2.42-.5-.537.564-.288,1.741.555,2.628s1.958,1.139,2.494.576c.519-.545.31-1.665-.468-2.537l-.08-.087C5818.78,3522.455,5818.753,3522.428,5818.726,3522.4Z" transform="translate(-5759.474 -3505.603)"/></g></g></g></g></svg>