<svg xmlns="http://www.w3.org/2000/svg" xmlns:xlink="http://www.w3.org/1999/xlink" width="24" height="24" viewBox="0 0 24 24"><defs><style>.a{fill:#0145ff;}.b{fill:none;}.c{clip-path:url(#a);}.d{fill:#fff;stroke:rgba(0,0,0,0);stroke-miterlimit:10;}</style><clipPath id="a"><rect class="a" width="24" height="24"/></clipPath></defs><rect class="b" width="24" height="24"/><g class="c"><path class="a" d="M0,10A10,10,0,1,1,10,20,10,10,0,0,1,0,10Z" transform="translate(2 2)"/></g><path class="d" d="M19073.1,13159.47a2.121,2.121,0,0,1-1.762-.981,2.055,2.055,0,0,1-.137-2l1.643-3.61a2.077,2.077,0,0,1,1.039-1.044l3.611-1.643a2.08,2.08,0,0,1,2.645.788,2.049,2.049,0,0,1,.137,1.994l-1.643,3.61a2.059,2.059,0,0,1-1.043,1.044l-3.611,1.643A2.128,2.128,0,0,1,19073.1,13159.47Zm5.266-7.461a.106.106,0,0,0-.043.01l-.076.033-1.652.752-.795.359-1.088.493a.1.1,0,0,0-.047.053l-.5,1.087-.359.795-.752,1.652-.033.076a.105.105,0,0,0,.006.1.1.1,0,0,0,.08.047.158.158,0,0,0,.043-.009l.082-.039,1.652-.751.795-.359,1.086-.493a.121.121,0,0,0,.049-.048l.492-1.087.365-.795.746-1.652.039-.082a.094.094,0,0,0-.006-.091A.1.1,0,0,0,19078.361,13152.009Z" transform="translate(-19063.844 -13142.846)"/></svg>