<svg xmlns="http://www.w3.org/2000/svg"
    xmlns:xlink="http://www.w3.org/1999/xlink" width="28" height="28" viewBox="0 0 28 28">
    <defs>
        <style>.c{clip-path:url(#a);}.d{clip-path:url(#b);}</style>
        <clipPath id="a">
            <circle class="a" cx="14" cy="14" r="14" transform="translate(1301 9203)"/>
        </clipPath>
        <clipPath id="b">
            <rect fill="#421b77" width="108" height="63" transform="translate(0.316 0.184)"/>
        </clipPath>
    </defs>
    <g class="c" transform="translate(-1301 -9203)">
        <g transform="translate(1245.061 9190.735)">
            <g transform="translate(-0.377 0.08)">
                <rect fill="#421b77" width="108" height="63" transform="translate(0.316 0.184)"/>
                <g class="d">
                    <path fill="#6619cf" d="M6323.664,9690.8l79.8.046c8.587,0,14.235,7.794,11.026,15.2l-29.829,68.864c-3.767,8.7-16.518,10.284-21.99,2.739l-49.973-68.908C6307.229,9701.2,6313.586,9690.8,6323.664,9690.8Z" transform="translate(-6326.885 -9667.323)"/>
                    <path fill="#fd5d5d" d="M6190,9506.072l79.866.046c8.593,0,14.247,7.8,11.035,15.21l-29.852,68.9c-3.771,8.7-16.531,10.291-22.008,2.742l-50.014-68.941C6173.553,9516.478,6179.915,9506.066,6190,9506.072Z" transform="translate(-6211.721 -9506.138)"/>
                    <path fill="#ec85e1" d="M35.4,63.97,2.012,17.938C-3.458,10.4,2.9-.006,12.975,0L83.147.04,56.907,60.585a13.041,13.041,0,0,1-12.093,7.569A12.136,12.136,0,0,1,35.4,63.97Z" transform="translate(-17.566 23.512)"/>
                </g>
            </g>
        </g>
    </g>
</svg>