<svg xmlns="http://www.w3.org/2000/svg" width="15.508" height="17" viewBox="0 0 15.508 17"><defs><style>.a{fill:#01000d;}</style></defs><path class="a" d="M18671.119-2007.667a8.35,8.35,0,0,1-2.668-1.824,8.427,8.427,0,0,1-1.791-2.7,8.467,8.467,0,0,1-.66-3.31,8.461,8.461,0,0,1,.66-3.305,8.5,8.5,0,0,1,1.791-2.705,8.412,8.412,0,0,1,2.668-1.819,8.182,8.182,0,0,1,3.264-.67,8.285,8.285,0,0,1,5.865,2.433,8.551,8.551,0,0,1,1.135,1.392.78.78,0,0,1-.217,1.069.755.755,0,0,1-1.059-.216,7.013,7.013,0,0,0-.93-1.144,6.767,6.767,0,0,0-4.795-1.988,6.764,6.764,0,0,0-4.854,2.039,6.957,6.957,0,0,0-2.006,4.914,6.959,6.959,0,0,0,2.006,4.918,6.783,6.783,0,0,0,4.854,2.04,6.768,6.768,0,0,0,4.795-1.988,7.014,7.014,0,0,0,.93-1.144.76.76,0,0,1,1.059-.22.786.786,0,0,1,.217,1.074,8.561,8.561,0,0,1-1.135,1.392,8.281,8.281,0,0,1-5.865,2.429A8.256,8.256,0,0,1,18671.119-2007.667Zm6.371-4.7a3.115,3.115,0,0,1-2.213-.91,3.051,3.051,0,0,1-.824-1.463h-.961v.694h-1.455v-.694h-.436v1.06h-1.453v-1.06h-.473v-1.453h4.762a3.048,3.048,0,0,1,.84-1.519,3.1,3.1,0,0,1,2.213-.914,3.106,3.106,0,0,1,2.223.914,3.11,3.11,0,0,1,.91,2.213,3.14,3.14,0,0,1-.91,2.222,3.12,3.12,0,0,1-2.205.91Zm1.2-1.936a1.646,1.646,0,0,0,.479-1.2,1.635,1.635,0,0,0-.479-1.191,1.665,1.665,0,0,0-1.2-.478,1.643,1.643,0,0,0-1.186.478,1.623,1.623,0,0,0-.482,1.191,1.634,1.634,0,0,0,.482,1.2,1.623,1.623,0,0,0,1.186.478A1.646,1.646,0,0,0,18678.686-2014.306Z" transform="translate(-18666 2024.002)"/></svg>