<svg xmlns="http://www.w3.org/2000/svg" width="14" height="14" viewBox="0 0 14 14"><defs><style>.a{fill:#fff;}</style></defs><path class="a" d="M-884-9960a6.957,6.957,0,0,1-2.726-.551,6.967,6.967,0,0,1-2.225-1.5,6.959,6.959,0,0,1-1.5-2.225A6.945,6.945,0,0,1-891-9967a6.949,6.949,0,0,1,.55-2.725,6.963,6.963,0,0,1,1.5-2.226,7,7,0,0,1,2.225-1.5A6.973,6.973,0,0,1-884-9974a6.972,6.972,0,0,1,2.725.55,6.989,6.989,0,0,1,2.224,1.5,6.979,6.979,0,0,1,1.5,2.226A6.964,6.964,0,0,1-877-9967a6.961,6.961,0,0,1-.55,2.725,6.975,6.975,0,0,1-1.5,2.225,6.957,6.957,0,0,1-2.224,1.5A6.956,6.956,0,0,1-884-9960Zm0-1.272c.378,0,.853-.574,1.209-1.465a8.021,8.021,0,0,0,.291-.883,5.734,5.734,0,0,0-1.5-.2,5.736,5.736,0,0,0-1.5.2,8,8,0,0,0,.292.883c.355.891.83,1.465,1.209,1.465Zm2.39-.991c-.083.208-.172.4-.266.586a5.7,5.7,0,0,0,1.476-.868,5.737,5.737,0,0,0-.91-.6A9.11,9.11,0,0,1-881.609-9962.264Zm-4.515.585q-.14-.272-.266-.585a9.094,9.094,0,0,1-.3-.886,5.738,5.738,0,0,0-.911.6A5.665,5.665,0,0,0-886.124-9961.679Zm6.624-1.776a5.666,5.666,0,0,0,1.194-2.909h-2.523a15.187,15.187,0,0,1-.195,1.936A6.963,6.963,0,0,1-879.5-9963.455Zm-9,0a6.974,6.974,0,0,1,1.524-.974,15.211,15.211,0,0,1-.194-1.936h-2.523A5.667,5.667,0,0,0-888.5-9963.455Zm6.256-1.414a14.107,14.107,0,0,0,.139-1.5H-885.9a14.124,14.124,0,0,0,.139,1.5,7,7,0,0,1,1.757-.222A7,7,0,0,1-882.242-9964.869Zm3.936-2.768a5.668,5.668,0,0,0-1.194-2.909,6.931,6.931,0,0,1-1.524.975,15.208,15.208,0,0,1,.195,1.935Zm-3.8,0a14.072,14.072,0,0,0-.139-1.494,7,7,0,0,1-1.757.222,7,7,0,0,1-1.757-.222,14.089,14.089,0,0,0-.139,1.494Zm-5.066,0a15.231,15.231,0,0,1,.194-1.935,6.942,6.942,0,0,1-1.524-.975,5.671,5.671,0,0,0-1.193,2.909Zm3.17-2.545a5.734,5.734,0,0,0,1.5-.2,8.039,8.039,0,0,0-.291-.884c-.356-.889-.831-1.463-1.209-1.463s-.854.574-1.209,1.463a8.013,8.013,0,0,0-.292.884A5.736,5.736,0,0,0-884-9970.182Zm-2.691-.668a8.919,8.919,0,0,1,.3-.886q.125-.315.266-.587a5.7,5.7,0,0,0-1.476.868A5.744,5.744,0,0,0-886.69-9970.85Zm5.081-.886a8.935,8.935,0,0,1,.3.886,5.743,5.743,0,0,0,.91-.6,5.7,5.7,0,0,0-1.476-.868Q-881.734-9972.05-881.609-9971.735Z" transform="translate(890.999 9974)"/></svg>