<svg xmlns="http://www.w3.org/2000/svg" width="14" height="14" viewBox="0 0 14 14"><defs><style>.a{opacity:0.003;}.b{stroke:#707070;}</style></defs><g transform="translate(-655.443 -401.419)"><g class="a"><rect width="14" height="14" transform="translate(655.443 401.419)"/><rect class="b" width="13" height="13" transform="translate(655.943 401.919)"/></g><path d="M658.194,412.63a6,6,0,1,1,4.229,1.745A5.907,5.907,0,0,1,658.194,412.63Zm-.589-4.235a4.82,4.82,0,1,0,4.822-4.816h0A4.824,4.824,0,0,0,657.6,408.4Zm2.479.313a.709.709,0,0,0-.147.546.655.655,0,0,0,.256.443,3.512,3.512,0,0,0,2.253.941,3.4,3.4,0,0,0,2.272-.951.7.7,0,0,0,.238-.475.722.722,0,0,0-.151-.516.741.741,0,0,0-.554-.252.707.707,0,0,0-.441.158,2.119,2.119,0,0,1-1.335.6,2.358,2.358,0,0,1-1.394-.6.721.721,0,0,0-.456-.163.68.68,0,0,0-.547.264Z"/></g></svg>