<svg xmlns="http://www.w3.org/2000/svg" width="24" height="24" viewBox="0 0 24 24"><defs><style>.a{fill:none;}.b{fill:#666;}</style></defs><rect class="a" width="24" height="24"/><g transform="translate(-1.498 -0.987)"><path class="b" d="M1.709,20.974A1.713,1.713,0,0,1,0,19.266V13.9a1.71,1.71,0,0,1,1.709-1.7h2.9L6.693,6.352A3.366,3.366,0,0,1,8.246,0h3.512a3.366,3.366,0,0,1,1.553,6.352L15.4,12.193h2.895A1.709,1.709,0,0,1,20,13.9v5.368a1.712,1.712,0,0,1-1.709,1.708Zm0-1.467H18.291a.245.245,0,0,0,.246-.241V16.828a.245.245,0,0,0-.246-.246H1.709a.243.243,0,0,0-.242.246v2.438A.243.243,0,0,0,1.709,19.507Zm16.582-4.388a1.7,1.7,0,0,1,.246.018V13.9a.245.245,0,0,0-.246-.241H1.709a.243.243,0,0,0-.242.241v1.238a1.663,1.663,0,0,1,.242-.017Zm-4.449-2.926-1.92-5.367H8.082l-1.92,5.367Zm-7.5-8.832a1.908,1.908,0,0,0,1.9,1.907h3.512a1.9,1.9,0,1,0,0-3.806H8.246A1.9,1.9,0,0,0,6.344,3.361Z" transform="translate(3.498 2.5)"/></g></svg>