<svg xmlns="http://www.w3.org/2000/svg" width="24" height="24" viewBox="0 0 24 24">
    <defs>
        <style>.b{fill:#0145ff;}</style>
    </defs>
    <g transform="translate(-1.5 -1.339)">
        <path class="b" d="M1.707,20.975A1.709,1.709,0,0,1,0,19.268V13.9a1.709,1.709,0,0,1,1.707-1.707h2.9L6.694,6.352A3.365,3.365,0,0,1,8.244,0h3.512a3.365,3.365,0,0,1,1.552,6.352l2.086,5.842h2.9A1.709,1.709,0,0,1,20,13.9v5.367a1.709,1.709,0,0,1-1.707,1.707Zm16.586-5.122a.982.982,0,0,1,.243.031V13.9a.244.244,0,0,0-.243-.243H1.707a.245.245,0,0,0-.243.243v1.983a.988.988,0,0,1,.243-.031ZM6.161,12.194H13.84L11.924,6.829H8.078Z" transform="translate(3.5 2.5)"/>
        <path class="b" d="M5.207,33.5H21.792A1.739,1.739,0,0,1,23.5,35.264v2.521a1.739,1.739,0,0,1-1.707,1.764H5.207A1.739,1.739,0,0,1,3.5,37.785V35.264A1.739,1.739,0,0,1,5.207,33.5Zm16.585,4.537a.248.248,0,0,0,.244-.252V35.264a.248.248,0,0,0-.244-.252H5.207a.248.248,0,0,0-.244.252v2.521a.248.248,0,0,0,.244.252Z" transform="translate(0 -16.074)"/>
    </g>
</svg>