<svg xmlns="http://www.w3.org/2000/svg" width="15.242" height="15.243" viewBox="0 0 15.242 15.243"><defs><style>.a{fill:#333;}.b{fill:#2c2c2c;}</style></defs><g transform="translate(0.152 0.148)"><path class="a" d="M17398-3714.906a7.631,7.631,0,0,1,7.621-7.622,7.627,7.627,0,0,1,7.621,7.622,7.63,7.63,0,0,1-7.621,7.621A7.634,7.634,0,0,1,17398-3714.906Zm5.184-5.777a6.364,6.364,0,0,0-1.994,1.342,6.286,6.286,0,0,0-1.342,1.993,6.234,6.234,0,0,0-.488,2.443,6.213,6.213,0,0,0,.488,2.438,6.28,6.28,0,0,0,1.342,1.993,6.3,6.3,0,0,0,1.994,1.342,6.181,6.181,0,0,0,2.438.494,6.2,6.2,0,0,0,2.443-.494,6.2,6.2,0,0,0,1.988-1.342,6.228,6.228,0,0,0,1.346-1.993,6.183,6.183,0,0,0,.494-2.438,6.2,6.2,0,0,0-.494-2.443,6.233,6.233,0,0,0-1.346-1.993,6.272,6.272,0,0,0-1.988-1.342,6.194,6.194,0,0,0-2.443-.49A6.173,6.173,0,0,0,17403.182-3720.683Z" transform="translate(-17398.15 3722.379)"/><path class="b" d="M17398.252-3721.365a.639.639,0,0,1-.215-.721.639.639,0,0,1,.617-.441.669.669,0,0,1,.406.14,4.279,4.279,0,0,0,2.682.93,4.287,4.287,0,0,0,2.682-.93.645.645,0,0,1,.406-.14.643.643,0,0,1,.615.437.647.647,0,0,1-.209.725,5.6,5.6,0,0,1-3.494,1.21A5.578,5.578,0,0,1,17398.252-3721.365Z" transform="translate(-17394.271 3732.778)"/></g></svg>