<svg xmlns="http://www.w3.org/2000/svg" width="13.997" height="13.997" viewBox="0 0 13.997 13.997"><defs><style>.a{fill:#00b69b;}.b{fill:#fff;}</style></defs><g transform="translate(-47 -258)"><path class="a" d="M7,0A7,7,0,1,1,0,7,7,7,0,0,1,7,0Z" transform="translate(47 258)"/><path class="b" d="M7,.808A6.191,6.191,0,0,0,2.621,11.376a6.191,6.191,0,0,0,8.755-8.755A6.15,6.15,0,0,0,7,.808M7,0A7,7,0,1,1,0,7,7,7,0,0,1,7,0Z" transform="translate(47 258)"/><path class="b" d="M10.643,17.287a.439.439,0,0,1-.312-.129l-2.2-2.2a.441.441,0,0,1,.623-.623l1.891,1.891,4.094-4.094a.441.441,0,0,1,.623.623l-4.406,4.406A.439.439,0,0,1,10.643,17.287Z" transform="translate(42.23 250.307)"/></g></svg>