<svg xmlns="http://www.w3.org/2000/svg" width="20" height="20" viewBox="0 0 20 20">

    <g transform="translate(4.998 2.553)">
        <g transform="translate(-4.23 -2.181)">
            <path fill="#848497" d="M180.034,1040.265a5.173,5.173,0,0,1,7.212,1.607l3.86-2.228a9.671,9.671,0,0,0-3.638-3.49A12.4,12.4,0,0,0,180.034,1040.265Z" transform="translate(-172.998 -1034.975)"/>
            <path fill="#848497" d="M138.335,1070.985a.161.161,0,0,1,.193-.2,6.155,6.155,0,0,0,3.608-.169,5.27,5.27,0,0,0,.763-.356c-.3-.2-1.451-.616-5.508,0-.182.027-.627.089-1.007.1a4.979,4.979,0,0,1,1.293,2.6A2.276,2.276,0,0,0,138.335,1070.985Z" transform="translate(-136.383 -1063.312)"/>
            <path fill="#848497" d="M140.962,1035.473a19.347,19.347,0,0,1,4.479-.291,13.265,13.265,0,0,1,4.464-4.215,13.108,13.108,0,0,1,3.594-1.409,9.631,9.631,0,0,0-12.8,5.949C140.788,1035.5,140.877,1035.485,140.962,1035.473Z" transform="translate(-140.003 -1028.845)"/>
            <path fill="#848497" d="M223.27,1105.743a1.563,1.563,0,0,0-.637-1.035l-.144-.091a.84.84,0,0,0-.57-.112q-.114.018-.234.041l0,0c-.056.009-.111.019-.166.03-.148.032-.3.07-.471.115a4.6,4.6,0,0,0-1.391.693,1.932,1.932,0,0,0-.627.661.589.589,0,0,0-.041.235,1.614,1.614,0,0,0,.084.409,1.663,1.663,0,0,1,.033,1.053,2.8,2.8,0,0,1-.236.557.808.808,0,0,0-.039.917c.067.134.133.251.191.355a1.82,1.82,0,0,1,.325,1.132.159.159,0,0,0,.109.054h.012a.161.161,0,0,0,.161-.149,1.644,1.644,0,0,0-.331-1.1c-.059-.1-.126-.209-.194-.334a.693.693,0,0,1,.039-.844,2.584,2.584,0,0,0,.24-.527,1.473,1.473,0,0,0-.033-1,1.411,1.411,0,0,1-.084-.379.561.561,0,0,1,.106-.336.143.143,0,0,0,.03.013l3.136.993a.166.166,0,0,0,.049.007.16.16,0,0,0,.116-.049A1.657,1.657,0,0,0,223.27,1105.743Zm-.727,1.016-2.927-.926c.075-.066.157-.128.236-.187a4.285,4.285,0,0,1,1.489-.7,5.091,5.091,0,0,1,.677-.118.505.505,0,0,1,.323.077l.112.071a1.251,1.251,0,0,1,.5.8A1.3,1.3,0,0,1,222.543,1106.759Z" transform="translate(-205.44 -1092.301)"/>
            <path fill="#848497" d="M142.3,1080.758c.029,0,.057.008.086.014a3.186,3.186,0,0,1,1.159.426,6.391,6.391,0,0,1,.583.424c.232.163.451.326.652.466a3.9,3.9,0,0,0,1.576.588l0,0a8.123,8.123,0,0,0,2.169-.068,10.045,10.045,0,0,1,4.757.16q.3-.075.565-.123c-1.355-.612-2.867-.694-5.365-.357a5.415,5.415,0,0,1-3.251-.29,5.34,5.34,0,0,1-.848-.588,7.271,7.271,0,0,0-.669-.49,3.336,3.336,0,0,0-.869-.38h0c-.051-.014-.1-.027-.155-.039l-.058-.014c-.124-.028-.252-.05-.385-.066v-.009a5.739,5.739,0,0,0-3.412.455.162.162,0,0,1-.208-.045.158.158,0,0,1-.027-.071h0a5.449,5.449,0,0,0-.674-1.961,9.633,9.633,0,0,0,13.223,10.458,1.5,1.5,0,0,0-.275-1.079c-.06-.107-.128-.228-.2-.368a1.7,1.7,0,0,1-.11-.271,11.159,11.159,0,0,1-2.8.394,6.318,6.318,0,0,1-3.317-.849,5.581,5.581,0,0,1-2.464-3.238.161.161,0,0,1,.314-.074,5.353,5.353,0,0,0,2.321,3.038c1.507.9,3.49,1.042,5.9.409h0a1.339,1.339,0,0,1,.2-.62,2.529,2.529,0,0,0,.211-.5,1.354,1.354,0,0,0-.032-.873,1.9,1.9,0,0,1-.1-.489,1.467,1.467,0,0,1,.7-1.109,4.393,4.393,0,0,1,.773-.491c-.039,0-.073.005-.087.007l-.445.047a7.323,7.323,0,0,0-.99.157,5.513,5.513,0,0,0-1.323.433,13.721,13.721,0,0,1-1.292.612,4.422,4.422,0,0,1-1.932.3,3.616,3.616,0,0,1-.635-.124,4.767,4.767,0,0,1-1.544-.671,3.6,3.6,0,0,1-.638-.58,3.967,3.967,0,0,1-.411-.434,2.859,2.859,0,0,1-.215-.307,3.91,3.91,0,0,0-.731-.688,4.029,4.029,0,0,0-2.129-.639,1.85,1.85,0,0,1,.776,1.276,5.629,5.629,0,0,1,.034,1.752c-.025.3-.051.6-.05.893a3.72,3.72,0,0,0,.477,2.044c-.219-.2-.426-.407-.623-.624a5.205,5.205,0,0,1-.176-1.419c0-.306.026-.619.051-.922a5.389,5.389,0,0,0-.027-1.651c-.1-.419-.343-1.125-.9-1.141a.777.777,0,0,0-.121.008,1.208,1.208,0,0,0-.951.923.154.154,0,0,1-.026.058q-.063-.285-.108-.577a1.426,1.426,0,0,1,.754-.655,5.876,5.876,0,0,1,3.164-.467" transform="translate(-137.56 -1070.74)"/>
            <path fill="#848497" d="M152.674,1072.02a.108.108,0,0,0,0-.015s0,0,0,0a5.984,5.984,0,0,1-4.8.883,2.624,2.624,0,0,1-.535,1.735,6.287,6.287,0,0,1,3.887,0v0s.07.018.138.039a4.044,4.044,0,0,0,1.311-2.64Z" transform="translate(-145.575 -1065.044)"/>
        </g>
    </g>
</svg>