<svg xmlns="http://www.w3.org/2000/svg" width="20" height="20" viewBox="0 0 20 20"><defs><style>.a{fill:rgba(255,255,255,0);stroke:rgba(112,112,112,0);opacity:0;}.b{fill:#1f1f36;}.c{stroke:none;}.d{fill:none;}</style></defs><g class="a"><rect class="c" width="20" height="20"/><rect class="d" x="0.5" y="0.5" width="19" height="19"/></g><path class="b" d="M9,18a9,9,0,1,1,9-9A9.01,9.01,0,0,1,9,18ZM11.84,5.5a.616.616,0,0,0-.161.021l-4.5,1.228a.613.613,0,0,0-.43.43l-1.228,4.5a.613.613,0,0,0,.591.775.629.629,0,0,0,.162-.022l4.5-1.227a.619.619,0,0,0,.431-.431l1.227-4.5a.613.613,0,0,0-.158-.595A.619.619,0,0,0,11.84,5.5ZM6.988,10.967v0l.852-3.124,3.126-.852-.853,3.125-3.123.853Z" transform="translate(1 1)"/></svg>
