<svg xmlns="http://www.w3.org/2000/svg" width="20" height="20" viewBox="0 0 20 20">

    <path fill="#1f1f36" d="M15.481,16.69h0a.438.438,0,0,1-.3-.128l-.68-.672a.429.429,0,0,0-.611,0l-.681.672a.429.429,0,0,1-.611,0l-.68-.672a.429.429,0,0,0-.611,0l-.68.672a.429.429,0,0,1-.611,0l-.681-.672a.429.429,0,0,0-.611,0l-.68.672a.429.429,0,0,1-.611,0l-.68-.672a.429.429,0,0,0-.611,0l-.681.672a.429.429,0,0,1-.611,0l-.68-.672a.429.429,0,0,0-.611,0l-.68.672a.429.429,0,0,1-.611,0l-.681-.672a.429.429,0,0,0-.611,0l-.68.672a.405.405,0,0,1-.3.127V.009A.429.429,0,0,1,.3.127l.68.681a.429.429,0,0,0,.611,0L2.272.127a.43.43,0,0,1,.611,0l.68.681a.429.429,0,0,0,.611,0l.68-.681a.43.43,0,0,1,.611,0l.689.681a.429.429,0,0,0,.611,0l.68-.672a.429.429,0,0,1,.611,0l.68.672a.429.429,0,0,0,.611,0l.681-.672a.429.429,0,0,1,.611,0l.68.672a.429.429,0,0,0,.611,0l.68-.672a.429.429,0,0,1,.611,0L13.9.808a.429.429,0,0,0,.611,0l.68-.672a.4.4,0,0,1,.292-.127v16.68ZM3.443,10.9a.852.852,0,1,0,0,1.7h8.6a.852.852,0,1,0,0-1.7Zm0-3.406a.852.852,0,1,0,0,1.7h8.6a.852.852,0,1,0,0-1.7Zm0-3.405a.851.851,0,1,0,0,1.7h8.6a.851.851,0,1,0,0-1.7Z" transform="translate(2.26 1.655)"/>
</svg>