<svg xmlns="http://www.w3.org/2000/svg" width="14" height="14" viewBox="0 0 14 14">
    <g transform="translate(-4 -4)">
        <path fill="currentColor" d="M16.6,18H5.4A1.4,1.4,0,0,1,4,16.6V5.4A1.4,1.4,0,0,1,5.4,4h4.9a.7.7,0,0,1,0,1.4H5.4V16.6H16.6V11.7a.7.7,0,1,1,1.4,0v4.9A1.4,1.4,0,0,1,16.6,18Z" transform="translate(0 0)"/>
        <path fill="currentColor" d="M14.8,13.6H12.6A.6.6,0,0,1,12,13V10.816a.6.6,0,0,1,.175-.424l6.209-6.216a.6.6,0,0,1,.849,0l2.191,2.192a.6.6,0,0,1,0,.848l-6.2,6.208A.6.6,0,0,1,14.8,13.6Zm-1.6-1.2h1.347l5.605-5.608L18.809,5.449,13.2,11.064Z" transform="translate(-3.6)"/>
    </g>
</svg>