<svg xmlns="http://www.w3.org/2000/svg" width="68" height="69" viewBox="0 0 68 69">
    <defs>
        <style>.a{fill:#6768ac;stroke:#fff;stroke-miterlimit:10;stroke-width:2px;}</style>
    </defs>
    <g transform="translate(1.333 1.467)">
        <g transform="translate(0 0)">
            <ellipse class="a" cx="33" cy="33.5" rx="33" ry="33.5" transform="translate(-0.333 -0.467)"/>
        </g>
        <g transform="translate(11.993 10.902)">
            <g transform="translate(0 0)">
                <path fill="#fff" d="M180.034,1045.546a11.817,11.817,0,0,1,16.475,3.671l8.818-5.09a22.091,22.091,0,0,0-8.31-7.974A28.321,28.321,0,0,0,180.034,1045.546Z" transform="translate(-163.961 -1033.462)"/>
                <path fill="#fff" d="M140.841,1072.335a.368.368,0,0,1,.441-.457,14.059,14.059,0,0,0,8.241-.387,12.014,12.014,0,0,0,1.742-.813c-.693-.463-3.314-1.407-12.583,0-.415.061-1.433.2-2.3.234a11.374,11.374,0,0,1,2.955,5.934A5.2,5.2,0,0,0,140.841,1072.335Z" transform="translate(-136.383 -1054.805)"/>
                <path fill="#fff" d="M141.3,1043.985a44.223,44.223,0,0,1,10.232-.665,30.3,30.3,0,0,1,10.2-9.627,29.967,29.967,0,0,1,8.21-3.218,22,22,0,0,0-29.241,13.591C140.9,1044.042,141.1,1044.014,141.3,1043.985Z" transform="translate(-139.11 -1028.845)"/>
                <path fill="#fff" d="M229.125,1107.347a3.569,3.569,0,0,0-1.455-2.364c-.11-.071-.22-.14-.33-.208a1.922,1.922,0,0,0-1.3-.256q-.261.042-.535.094l.011,0c-.128.021-.254.045-.38.069-.339.074-.7.16-1.075.262a10.515,10.515,0,0,0-3.178,1.582,4.414,4.414,0,0,0-1.432,1.51,1.344,1.344,0,0,0-.094.537,3.688,3.688,0,0,0,.192.934,3.8,3.8,0,0,1,.075,2.406,6.394,6.394,0,0,1-.539,1.273,1.845,1.845,0,0,0-.089,2.094c.154.306.3.574.437.812a4.157,4.157,0,0,1,.743,2.584.365.365,0,0,0,.248.124h.028a.368.368,0,0,0,.368-.34,3.759,3.759,0,0,0-.756-2.508c-.135-.223-.287-.477-.443-.763a1.584,1.584,0,0,1,.09-1.927,5.9,5.9,0,0,0,.549-1.2,3.367,3.367,0,0,0-.076-2.289,3.21,3.21,0,0,1-.193-.867,1.278,1.278,0,0,1,.243-.767.355.355,0,0,0,.068.03l7.164,2.268a.38.38,0,0,0,.111.016.367.367,0,0,0,.265-.113A3.786,3.786,0,0,0,229.125,1107.347Zm-1.66,2.32-6.686-2.115c.172-.151.358-.292.54-.427a9.772,9.772,0,0,1,3.4-1.594,11.566,11.566,0,0,1,1.546-.271,1.152,1.152,0,0,1,.738.175c.085.052.17.106.255.161a2.857,2.857,0,0,1,1.132,1.832A2.962,2.962,0,0,1,227.466,1109.667Z" transform="translate(-188.396 -1076.64)"/>
                <path fill="#fff" d="M148.092,1083.283c.065.009.131.019.2.032a7.279,7.279,0,0,1,2.648.974,14.577,14.577,0,0,1,1.331.968c.53.372,1.03.744,1.49,1.063a8.909,8.909,0,0,0,3.6,1.343l.007.011a18.567,18.567,0,0,0,4.955-.156c4.941-.666,8.133-.6,10.866.365q.685-.17,1.29-.28c-3.094-1.4-6.55-1.586-12.255-.816-2.361.319-5.078.557-7.427-.663a12.157,12.157,0,0,1-1.937-1.343,16.617,16.617,0,0,0-1.529-1.118,7.63,7.63,0,0,0-1.986-.868l-.011,0c-.116-.033-.235-.061-.355-.09l-.132-.031c-.284-.062-.576-.113-.879-.151v-.021a13.111,13.111,0,0,0-7.794,1.038.359.359,0,0,1-.538-.266h-.005a12.443,12.443,0,0,0-1.54-4.481,22,22,0,0,0,30.205,23.891,3.423,3.423,0,0,0-.627-2.465c-.137-.244-.292-.521-.453-.841a3.887,3.887,0,0,1-.25-.618,25.485,25.485,0,0,1-6.4.9,14.428,14.428,0,0,1-7.577-1.939,12.75,12.75,0,0,1-5.63-7.4.369.369,0,0,1,.718-.169,12.231,12.231,0,0,0,5.3,6.941c3.442,2.067,7.973,2.381,13.469.934h0a3.059,3.059,0,0,1,.456-1.415,5.762,5.762,0,0,0,.483-1.134,3.093,3.093,0,0,0-.072-2,4.324,4.324,0,0,1-.223-1.116,3.353,3.353,0,0,1,1.6-2.534,10.039,10.039,0,0,1,1.765-1.121c-.088,0-.166.012-.2.016-.335.036-.675.071-1.016.107a16.668,16.668,0,0,0-2.261.359,12.611,12.611,0,0,0-3.023.99,31.293,31.293,0,0,1-2.952,1.4,10.111,10.111,0,0,1-4.413.675,8.16,8.16,0,0,1-1.45-.285,10.884,10.884,0,0,1-3.528-1.532,8.209,8.209,0,0,1-1.456-1.324,9.032,9.032,0,0,1-.938-.992,6.538,6.538,0,0,1-.491-.7,8.962,8.962,0,0,0-1.67-1.571,9.2,9.2,0,0,0-4.864-1.459,4.222,4.222,0,0,1,1.774,2.914,12.859,12.859,0,0,1,.077,4c-.057.675-.117,1.372-.114,2.039a8.5,8.5,0,0,0,1.089,4.67q-.749-.68-1.424-1.427a11.884,11.884,0,0,1-.4-3.241c0-.7.059-1.414.117-2.1a12.315,12.315,0,0,0-.061-3.772c-.222-.958-.783-2.57-2.052-2.608a1.766,1.766,0,0,0-.277.018,2.757,2.757,0,0,0-2.173,2.108.355.355,0,0,1-.059.133q-.145-.652-.247-1.318a3.257,3.257,0,0,1,1.723-1.5,13.416,13.416,0,0,1,7.227-1.067" transform="translate(-137.269 -1060.4)"/>
                <path fill="#fff" d="M159.524,1072.046a.256.256,0,0,0,0-.035s0-.007,0-.01a13.672,13.672,0,0,1-10.963,2.016,5.993,5.993,0,0,1-1.223,3.962,14.371,14.371,0,0,1,8.88,0v0s.159.042.315.09a9.238,9.238,0,0,0,2.994-6.031Z" transform="translate(-143.306 -1056.11)"/>
            </g>
        </g>
    </g>
</svg>